# Blender 5.0.1
# www.blender.org
o Part_2.001
v -0.452665 -0.737150 -0.028547
v -0.452665 -0.737150 -0.025547
v -0.452665 0.712850 -0.025547
v -0.452665 0.712850 -0.028547
v -0.452665 0.712850 -0.028547
v -0.452665 0.712850 -0.025547
v 0.487335 0.712850 -0.025547
v 0.487335 0.712850 -0.028547
v 0.487335 0.712850 -0.028547
v 0.487335 0.712850 -0.025547
v 0.487335 -0.737150 -0.025547
v 0.487335 -0.737150 -0.028547
v 0.487335 -0.737150 -0.028547
v 0.487335 -0.737150 -0.025547
v -0.452665 -0.737150 -0.025547
v -0.452665 -0.737150 -0.028547
v -0.452665 0.712850 -0.028547
v 0.487335 0.712850 -0.028547
v 0.487335 -0.737150 -0.028547
v -0.452665 -0.737150 -0.028547
v -0.452665 0.712850 -0.025547
v -0.452665 -0.737150 -0.025547
v 0.487335 -0.737150 -0.025547
v 0.487335 0.712850 -0.025547
vn -1.0000 -0.0000 -0.0000
vn -0.0000 1.0000 -0.0000
vn 1.0000 -0.0000 -0.0000
vn -0.0000 -1.0000 -0.0000
vn -0.0000 -0.0000 -1.0000
vn -0.0000 -0.0000 1.0000
vt 1.000000 1.000000
vt 1.000000 0.000000
vt 0.000000 0.000000
vt 0.000000 1.000000
s 0
f 1/1/1 2/2/1 3/3/1
f 3/3/1 4/4/1 1/1/1
f 5/1/2 6/4/2 7/3/2
f 7/3/2 8/2/2 5/1/2
f 9/4/3 10/3/3 11/2/3
f 11/2/3 12/1/3 9/4/3
f 13/2/4 14/3/4 15/4/4
f 15/4/4 16/1/4 13/2/4
f 17/4/5 18/1/5 19/2/5
f 19/2/5 20/3/5 17/4/5
f 21/4/6 22/3/6 23/2/6
f 23/2/6 24/1/6 21/4/6
