# Blender 5.0.1
# www.blender.org
o Part_1
v 0.167335 -0.177150 0.069060
v 0.167335 -0.177150 0.212060
v 0.462335 -0.177150 0.212060
v 0.462335 -0.177150 0.069060
v 0.462335 -0.177150 0.069060
v 0.462335 -0.177150 0.212060
v 0.464286 -0.177342 0.212060
v 0.464286 -0.177342 0.069060
v 0.466162 -0.177911 0.212060
v 0.466162 -0.177911 0.069060
v 0.467890 -0.178836 0.212060
v 0.467890 -0.178836 0.069060
v 0.469406 -0.180079 0.212060
v 0.469406 -0.180079 0.069060
v 0.470649 -0.181595 0.212060
v 0.470649 -0.181595 0.069060
v 0.471574 -0.183323 0.212060
v 0.471574 -0.183323 0.069060
v 0.472143 -0.185199 0.212060
v 0.472143 -0.185199 0.069060
v 0.472335 -0.187150 0.212060
v 0.472335 -0.187150 0.069060
v 0.472335 -0.467150 0.212060
v 0.472335 -0.467150 0.069060
v 0.472335 -0.187150 0.069060
v 0.472335 -0.187150 0.212060
v 0.462335 -0.477150 0.212060
v 0.462335 -0.477150 0.069060
v 0.464286 -0.476958 0.069060
v 0.464286 -0.476958 0.212060
v 0.466162 -0.476389 0.069060
v 0.466162 -0.476389 0.212060
v 0.467890 -0.475465 0.069060
v 0.467890 -0.475465 0.212060
v 0.469406 -0.474221 0.069060
v 0.469406 -0.474221 0.212060
v 0.470649 -0.472706 0.069060
v 0.470649 -0.472706 0.212060
v 0.471574 -0.470977 0.069060
v 0.471574 -0.470977 0.212060
v 0.472143 -0.469101 0.069060
v 0.472143 -0.469101 0.212060
v 0.472335 -0.467150 0.069060
v 0.472335 -0.467150 0.212060
v 0.167335 -0.477150 0.212060
v 0.167335 -0.477150 0.069060
v 0.462335 -0.477150 0.069060
v 0.462335 -0.477150 0.212060
v 0.157335 -0.187150 0.069060
v 0.163508 -0.177911 0.069060
v 0.165384 -0.177342 0.069060
v 0.160264 -0.180079 0.069060
v 0.161779 -0.178836 0.069060
v 0.157527 -0.185199 0.069060
v 0.471574 -0.470977 0.069060
v 0.469406 -0.474221 0.069060
v 0.467890 -0.475465 0.069060
v 0.158096 -0.183323 0.069060
v 0.159020 -0.472706 0.069060
v 0.158096 -0.470977 0.069060
v 0.157527 -0.469101 0.069060
v 0.157335 -0.467150 0.069060
v 0.161779 -0.475465 0.069060
v 0.160264 -0.474221 0.069060
v 0.165384 -0.476958 0.069060
v 0.163508 -0.476389 0.069060
v 0.466162 -0.476389 0.069060
v 0.464286 -0.476958 0.069060
v 0.470649 -0.472706 0.069060
v 0.472143 -0.185199 0.069060
v 0.469406 -0.180079 0.069060
v 0.470649 -0.181595 0.069060
v 0.466162 -0.177911 0.069060
v 0.467890 -0.178836 0.069060
v 0.159020 -0.181595 0.069060
v 0.167335 -0.477150 0.069060
v 0.462335 -0.477150 0.069060
v 0.472335 -0.467150 0.069060
v 0.472143 -0.469101 0.069060
v 0.462335 -0.177150 0.069060
v 0.464286 -0.177342 0.069060
v 0.167335 -0.177150 0.069060
v 0.472335 -0.187150 0.069060
v 0.471574 -0.183323 0.069060
v 0.157335 -0.467150 0.069060
v 0.157335 -0.467150 0.212060
v 0.157335 -0.187150 0.212060
v 0.157335 -0.187150 0.069060
v 0.167335 -0.177150 0.212060
v 0.167335 -0.177150 0.069060
v 0.165384 -0.177342 0.069060
v 0.165384 -0.177342 0.212060
v 0.163508 -0.177911 0.069060
v 0.163508 -0.177911 0.212060
v 0.161779 -0.178836 0.069060
v 0.161779 -0.178836 0.212060
v 0.160264 -0.180079 0.069060
v 0.160264 -0.180079 0.212060
v 0.159020 -0.181595 0.069060
v 0.159020 -0.181595 0.212060
v 0.158096 -0.183323 0.069060
v 0.158096 -0.183323 0.212060
v 0.157527 -0.185199 0.069060
v 0.157527 -0.185199 0.212060
v 0.157335 -0.187150 0.069060
v 0.157335 -0.187150 0.212060
v 0.167335 -0.477150 0.069060
v 0.167335 -0.477150 0.212060
v 0.165384 -0.476958 0.212060
v 0.165384 -0.476958 0.069060
v 0.163508 -0.476389 0.212060
v 0.163508 -0.476389 0.069060
v 0.161779 -0.475465 0.212060
v 0.161779 -0.475465 0.069060
v 0.160264 -0.474221 0.212060
v 0.160264 -0.474221 0.069060
v 0.159020 -0.472706 0.212060
v 0.159020 -0.472706 0.069060
v 0.158096 -0.470977 0.212060
v 0.158096 -0.470977 0.069060
v 0.157527 -0.469101 0.212060
v 0.157527 -0.469101 0.069060
v 0.157335 -0.467150 0.212060
v 0.157335 -0.467150 0.069060
v 0.461162 -0.471389 0.212060
v 0.459286 -0.471958 0.212060
v 0.462335 -0.477150 0.212060
v 0.467890 -0.475465 0.212060
v 0.464406 -0.469221 0.212060
v 0.462890 -0.470465 0.212060
v 0.470649 -0.472706 0.212060
v 0.471574 -0.470977 0.212060
v 0.465649 -0.467706 0.212060
v 0.462335 -0.177150 0.212060
v 0.167335 -0.177150 0.212060
v 0.172335 -0.182150 0.212060
v 0.464286 -0.476958 0.212060
v 0.466162 -0.476389 0.212060
v 0.469406 -0.474221 0.212060
v 0.170384 -0.182342 0.212060
v 0.472143 -0.469101 0.212060
v 0.466574 -0.465977 0.212060
v 0.472335 -0.467150 0.212060
v 0.472335 -0.187150 0.212060
v 0.467335 -0.192150 0.212060
v 0.467335 -0.462150 0.212060
v 0.461162 -0.182911 0.212060
v 0.464286 -0.177342 0.212060
v 0.457335 -0.182150 0.212060
v 0.168508 -0.182911 0.212060
v 0.166779 -0.183836 0.212060
v 0.165384 -0.177342 0.212060
v 0.467143 -0.464101 0.212060
v 0.470649 -0.181595 0.212060
v 0.464406 -0.185079 0.212060
v 0.465649 -0.186595 0.212060
v 0.467890 -0.178836 0.212060
v 0.466162 -0.177911 0.212060
v 0.462890 -0.183836 0.212060
v 0.459286 -0.182342 0.212060
v 0.163508 -0.177911 0.212060
v 0.157335 -0.187150 0.212060
v 0.157335 -0.467150 0.212060
v 0.162335 -0.462150 0.212060
v 0.467143 -0.190199 0.212060
v 0.466574 -0.188323 0.212060
v 0.472143 -0.185199 0.212060
v 0.471574 -0.183323 0.212060
v 0.469406 -0.180079 0.212060
v 0.164020 -0.186595 0.212060
v 0.158096 -0.183323 0.212060
v 0.157527 -0.185199 0.212060
v 0.163096 -0.188323 0.212060
v 0.162335 -0.192150 0.212060
v 0.159020 -0.472706 0.212060
v 0.165264 -0.469221 0.212060
v 0.164020 -0.467706 0.212060
v 0.161779 -0.475465 0.212060
v 0.163508 -0.476389 0.212060
v 0.166779 -0.470465 0.212060
v 0.165384 -0.476958 0.212060
v 0.168508 -0.471389 0.212060
v 0.167335 -0.477150 0.212060
v 0.457335 -0.472150 0.212060
v 0.172335 -0.472150 0.212060
v 0.161779 -0.178836 0.212060
v 0.165264 -0.185079 0.212060
v 0.159020 -0.181595 0.212060
v 0.162527 -0.190199 0.212060
v 0.162527 -0.464101 0.212060
v 0.163096 -0.465977 0.212060
v 0.157527 -0.469101 0.212060
v 0.158096 -0.470977 0.212060
v 0.160264 -0.474221 0.212060
v 0.170384 -0.471958 0.212060
v 0.160264 -0.180079 0.212060
v 0.162335 -0.192150 0.074060
v 0.162335 -0.192150 0.212060
v 0.162335 -0.462150 0.212060
v 0.162335 -0.462150 0.074060
v 0.467335 -0.192150 0.074060
v 0.464406 -0.185079 0.074060
v 0.462890 -0.183836 0.074060
v 0.461162 -0.182911 0.074060
v 0.467143 -0.190199 0.074060
v 0.467335 -0.462150 0.074060
v 0.464406 -0.469221 0.074060
v 0.465649 -0.467706 0.074060
v 0.461162 -0.471389 0.074060
v 0.462890 -0.470465 0.074060
v 0.172335 -0.182150 0.074060
v 0.163096 -0.188323 0.074060
v 0.162527 -0.190199 0.074060
v 0.165264 -0.185079 0.074060
v 0.164020 -0.186595 0.074060
v 0.170384 -0.182342 0.074060
v 0.459286 -0.182342 0.074060
v 0.466574 -0.188323 0.074060
v 0.466574 -0.465977 0.074060
v 0.459286 -0.471958 0.074060
v 0.168508 -0.471389 0.074060
v 0.163096 -0.465977 0.074060
v 0.164020 -0.467706 0.074060
v 0.168508 -0.182911 0.074060
v 0.457335 -0.182150 0.074060
v 0.465649 -0.186595 0.074060
v 0.170384 -0.471958 0.074060
v 0.165264 -0.469221 0.074060
v 0.166779 -0.183836 0.074060
v 0.457335 -0.472150 0.074060
v 0.162335 -0.462150 0.074060
v 0.172335 -0.472150 0.074060
v 0.166779 -0.470465 0.074060
v 0.162527 -0.464101 0.074060
v 0.162335 -0.192150 0.074060
v 0.467143 -0.464101 0.074060
v 0.172335 -0.182150 0.212060
v 0.172335 -0.182150 0.074060
v 0.457335 -0.182150 0.074060
v 0.457335 -0.182150 0.212060
v 0.467335 -0.192150 0.212060
v 0.467335 -0.192150 0.074060
v 0.467335 -0.462150 0.074060
v 0.467335 -0.462150 0.212060
v 0.457335 -0.472150 0.212060
v 0.457335 -0.472150 0.074060
v 0.172335 -0.472150 0.074060
v 0.172335 -0.472150 0.212060
v 0.170384 -0.471958 0.212060
v 0.172335 -0.472150 0.212060
v 0.172335 -0.472150 0.074060
v 0.168508 -0.471389 0.212060
v 0.170384 -0.471958 0.074060
v 0.166779 -0.470465 0.212060
v 0.168508 -0.471389 0.074060
v 0.165264 -0.469221 0.212060
v 0.166779 -0.470465 0.074060
v 0.164020 -0.467706 0.212060
v 0.165264 -0.469221 0.074060
v 0.163096 -0.465977 0.212060
v 0.164020 -0.467706 0.074060
v 0.162527 -0.464101 0.212060
v 0.163096 -0.465977 0.074060
v 0.162335 -0.462150 0.212060
v 0.162527 -0.464101 0.074060
v 0.162335 -0.462150 0.074060
v 0.459286 -0.471958 0.074060
v 0.457335 -0.472150 0.074060
v 0.457335 -0.472150 0.212060
v 0.461162 -0.471389 0.074060
v 0.459286 -0.471958 0.212060
v 0.462890 -0.470465 0.074060
v 0.461162 -0.471389 0.212060
v 0.464406 -0.469221 0.074060
v 0.462890 -0.470465 0.212060
v 0.465649 -0.467706 0.074060
v 0.464406 -0.469221 0.212060
v 0.466574 -0.465977 0.074060
v 0.465649 -0.467706 0.212060
v 0.467143 -0.464101 0.074060
v 0.466574 -0.465977 0.212060
v 0.467335 -0.462150 0.074060
v 0.467143 -0.464101 0.212060
v 0.467335 -0.462150 0.212060
v 0.459286 -0.182342 0.212060
v 0.457335 -0.182150 0.212060
v 0.457335 -0.182150 0.074060
v 0.461162 -0.182911 0.212060
v 0.459286 -0.182342 0.074060
v 0.462890 -0.183836 0.212060
v 0.461162 -0.182911 0.074060
v 0.464406 -0.185079 0.212060
v 0.462890 -0.183836 0.074060
v 0.465649 -0.186595 0.212060
v 0.464406 -0.185079 0.074060
v 0.466574 -0.188323 0.212060
v 0.465649 -0.186595 0.074060
v 0.467143 -0.190199 0.212060
v 0.466574 -0.188323 0.074060
v 0.467335 -0.192150 0.212060
v 0.467143 -0.190199 0.074060
v 0.467335 -0.192150 0.074060
v 0.170384 -0.182342 0.074060
v 0.172335 -0.182150 0.074060
v 0.172335 -0.182150 0.212060
v 0.168508 -0.182911 0.074060
v 0.170384 -0.182342 0.212060
v 0.166779 -0.183836 0.074060
v 0.168508 -0.182911 0.212060
v 0.165264 -0.185079 0.074060
v 0.166779 -0.183836 0.212060
v 0.164020 -0.186595 0.074060
v 0.165264 -0.185079 0.212060
v 0.163096 -0.188323 0.074060
v 0.164020 -0.186595 0.212060
v 0.162527 -0.190199 0.074060
v 0.163096 -0.188323 0.212060
v 0.162335 -0.192150 0.074060
v 0.162527 -0.190199 0.212060
v 0.162335 -0.192150 0.212060
vn -0.0000 1.0000 -0.0000
vn 0.1951 0.9808 -0.0000
vn 0.3827 0.9239 -0.0000
vn 0.5556 0.8315 -0.0000
vn 0.7071 0.7071 -0.0000
vn 0.8315 0.5556 -0.0000
vn 0.9239 0.3827 -0.0000
vn 0.9808 0.1951 -0.0000
vn 1.0000 -0.0000 -0.0000
vn -0.0000 -1.0000 -0.0000
vn 0.1951 -0.9808 -0.0000
vn 0.3827 -0.9239 -0.0000
vn 0.5556 -0.8315 -0.0000
vn 0.7071 -0.7071 -0.0000
vn 0.8315 -0.5556 -0.0000
vn 0.9239 -0.3827 -0.0000
vn 0.9808 -0.1951 -0.0000
vn -0.0000 -0.0000 -1.0000
vn -1.0000 -0.0000 -0.0000
vn -0.1951 0.9808 -0.0000
vn -0.3827 0.9239 -0.0000
vn -0.5556 0.8315 -0.0000
vn -0.7071 0.7071 -0.0000
vn -0.8315 0.5556 -0.0000
vn -0.9239 0.3827 -0.0000
vn -0.9808 0.1951 -0.0000
vn -0.1951 -0.9808 -0.0000
vn -0.3827 -0.9239 -0.0000
vn -0.5556 -0.8315 -0.0000
vn -0.7071 -0.7071 -0.0000
vn -0.8315 -0.5556 -0.0000
vn -0.9239 -0.3827 -0.0000
vn -0.9808 -0.1951 -0.0000
vn -0.0000 -0.0000 1.0000
vt 0.000000 1.000000
vt 1.000000 1.000000
vt 1.000000 0.000000
vt 0.000000 0.000000
vt 0.125000 1.000000
vt 0.125000 0.000000
vt 0.250000 1.000000
vt 0.250000 0.000000
vt 0.375000 1.000000
vt 0.375000 0.000000
vt 0.500000 1.000000
vt 0.500000 0.000000
vt 0.625000 1.000000
vt 0.625000 0.000000
vt 0.750000 1.000000
vt 0.750000 0.000000
vt 0.875000 1.000000
vt 0.875000 0.000000
vt 0.000000 0.033333
vt 0.019597 0.002537
vt 0.025553 0.000641
vt 0.009298 0.009763
vt 0.014109 0.005618
vt 0.000610 0.026830
vt 0.997583 0.979423
vt 0.990702 0.990237
vt 0.985891 0.994382
vt 0.002417 0.020577
vt 0.005350 0.985186
vt 0.002417 0.979423
vt 0.000610 0.973170
vt 0.000000 0.966667
vt 0.014109 0.994382
vt 0.009298 0.990237
vt 0.025553 0.999359
vt 0.019597 0.997463
vt 0.980403 0.997463
vt 0.974447 0.999359
vt 0.994650 0.985186
vt 0.999390 0.026830
vt 0.990702 0.009763
vt 0.994650 0.014814
vt 0.980403 0.002537
vt 0.985891 0.005618
vt 0.005350 0.014814
vt 0.031746 1.000000
vt 0.968254 1.000000
vt 1.000000 0.966667
vt 0.999390 0.973170
vt 0.968254 0.000000
vt 0.974447 0.000641
vt 0.031746 0.000000
vt 1.000000 0.033333
vt 0.997583 0.020577
vt 0.964530 0.980796
vt 0.958574 0.982693
vt 0.974829 0.973570
vt 0.970018 0.977716
vt 0.978777 0.968519
vt 0.047619 0.016667
vt 0.041426 0.017307
vt 0.981710 0.962756
vt 0.984127 0.050000
vt 0.984127 0.950000
vt 0.964530 0.019204
vt 0.952381 0.016667
vt 0.035470 0.019204
vt 0.029982 0.022284
vt 0.983517 0.956503
vt 0.974829 0.026430
vt 0.978777 0.031481
vt 0.970018 0.022284
vt 0.958574 0.017307
vt 0.015873 0.950000
vt 0.983517 0.043497
vt 0.981710 0.037244
vt 0.021223 0.031481
vt 0.018290 0.037244
vt 0.015873 0.050000
vt 0.025171 0.973570
vt 0.021223 0.968519
vt 0.029982 0.977716
vt 0.035470 0.980796
vt 0.952381 0.983333
vt 0.047619 0.983333
vt 0.025171 0.026430
vt 0.016483 0.043497
vt 0.016483 0.956503
vt 0.018290 0.962756
vt 0.041426 0.982693
vt 1.000000 0.034483
vt 0.990397 0.010100
vt 0.985429 0.005811
vt 0.979760 0.002625
vt 0.999370 0.027755
vt 1.000000 0.965517
vt 0.990397 0.989900
vt 0.994474 0.984675
vt 0.979760 0.997375
vt 0.985429 0.994189
vt 0.032787 0.000000
vt 0.002496 0.021287
vt 0.000630 0.027755
vt 0.009603 0.010100
vt 0.005526 0.015325
vt 0.026390 0.000663
vt 0.973610 0.000663
vt 0.997504 0.021287
vt 0.997504 0.978713
vt 0.973610 0.999337
vt 0.020240 0.997375
vt 0.002496 0.978713
vt 0.005526 0.984675
vt 0.020240 0.002625
vt 0.967213 0.000000
vt 0.994474 0.015325
vt 0.026390 0.999337
vt 0.009603 0.989900
vt 0.014571 0.005811
vt 0.967213 1.000000
vt 0.000000 0.965517
vt 0.032787 1.000000
vt 0.014571 0.994189
vt 0.000630 0.972245
vt 0.000000 0.034483
vt 0.999370 0.972245
s 0
f 1/1/1 2/2/1 3/3/1
f 3/3/1 4/4/1 1/1/1
s 1
f 5/4/1 6/1/1 7/5/2
f 8/6/2 7/5/2 9/7/3
f 10/8/3 9/7/3 11/9/4
f 12/10/4 11/9/4 13/11/5
f 14/12/5 13/11/5 15/13/6
f 16/14/6 15/13/6 17/15/7
f 18/16/7 17/15/7 19/17/8
f 20/18/8 19/17/8 21/2/9
f 21/2/9 22/3/9 20/18/8
f 19/17/8 20/18/8 18/16/7
f 17/15/7 18/16/7 16/14/6
f 15/13/6 16/14/6 14/12/5
f 13/11/5 14/12/5 12/10/4
f 11/9/4 12/10/4 10/8/3
f 9/7/3 10/8/3 8/6/2
f 7/5/2 8/6/2 5/4/1
s 0
f 23/1/9 24/2/9 25/3/9
f 25/3/9 26/4/9 23/1/9
s 1
f 27/4/10 28/1/10 29/5/11
f 30/6/11 29/5/11 31/7/12
f 32/8/12 31/7/12 33/9/13
f 34/10/13 33/9/13 35/11/14
f 36/12/14 35/11/14 37/13/15
f 38/14/15 37/13/15 39/15/16
f 40/16/16 39/15/16 41/17/17
f 42/18/17 41/17/17 43/2/9
f 43/2/9 44/3/9 42/18/17
f 41/17/17 42/18/17 40/16/16
f 39/15/16 40/16/16 38/14/15
f 37/13/15 38/14/15 36/12/14
f 35/11/14 36/12/14 34/10/13
f 33/9/13 34/10/13 32/8/12
f 31/7/12 32/8/12 30/6/11
f 29/5/11 30/6/11 27/4/10
s 0
f 45/2/10 46/1/10 47/4/10
f 47/4/10 48/3/10 45/2/10
f 49/19/18 50/20/18 51/21/18
f 49/19/18 52/22/18 53/23/18
f 52/22/18 49/19/18 54/24/18
f 55/25/18 56/26/18 57/27/18
f 53/23/18 50/20/18 49/19/18
f 54/24/18 58/28/18 52/22/18
f 59/29/18 60/30/18 61/31/18
f 62/32/18 63/33/18 64/34/18
f 62/32/18 65/35/18 66/36/18
f 55/25/18 67/37/18 68/38/18
f 55/25/18 69/39/18 56/26/18
f 70/40/18 71/41/18 72/42/18
f 70/40/18 73/43/18 74/44/18
f 58/28/18 75/45/18 52/22/18
f 76/46/18 62/32/18 49/19/18
f 64/34/18 59/29/18 62/32/18
f 62/32/18 76/46/18 65/35/18
f 57/27/18 67/37/18 55/25/18
f 77/47/18 78/48/18 79/49/18
f 74/44/18 71/41/18 70/40/18
f 70/40/18 80/50/18 81/51/18
f 49/19/18 82/52/18 76/46/18
f 66/36/18 63/33/18 62/32/18
f 79/49/18 55/25/18 77/47/18
f 77/47/18 80/50/18 83/53/18
f 81/51/18 73/43/18 70/40/18
f 61/31/18 62/32/18 59/29/18
f 82/52/18 80/50/18 77/47/18
f 83/53/18 78/48/18 77/47/18
f 72/42/18 84/54/18 70/40/18
f 77/47/18 76/46/18 82/52/18
f 70/40/18 83/53/18 80/50/18
f 68/38/18 77/47/18 55/25/18
f 51/21/18 82/52/18 49/19/18
f 85/2/19 86/1/19 87/4/19
f 87/4/19 88/3/19 85/2/19
s 1
f 89/4/1 90/1/1 91/5/20
f 92/6/20 91/5/20 93/7/21
f 94/8/21 93/7/21 95/9/22
f 96/10/22 95/9/22 97/11/23
f 98/12/23 97/11/23 99/13/24
f 100/14/24 99/13/24 101/15/25
f 102/16/25 101/15/25 103/17/26
f 104/18/26 103/17/26 105/2/19
f 105/2/19 106/3/19 104/18/26
f 103/17/26 104/18/26 102/16/25
f 101/15/25 102/16/25 100/14/24
f 99/13/24 100/14/24 98/12/23
f 97/11/23 98/12/23 96/10/22
f 95/9/22 96/10/22 94/8/21
f 93/7/21 94/8/21 92/6/20
f 91/5/20 92/6/20 89/4/1
f 107/4/10 108/1/10 109/5/27
f 110/6/27 109/5/27 111/7/28
f 112/8/28 111/7/28 113/9/29
f 114/10/29 113/9/29 115/11/30
f 116/12/30 115/11/30 117/13/31
f 118/14/31 117/13/31 119/15/32
f 120/16/32 119/15/32 121/17/33
f 122/18/33 121/17/33 123/2/19
f 123/2/19 124/3/19 122/18/33
f 121/17/33 122/18/33 120/16/32
f 119/15/32 120/16/32 118/14/31
f 117/13/31 118/14/31 116/12/30
f 115/11/30 116/12/30 114/10/29
f 113/9/29 114/10/29 112/8/28
f 111/7/28 112/8/28 110/6/27
f 109/5/27 110/6/27 107/4/10
s 0
f 125/55/34 126/56/34 127/47/34
f 128/27/34 129/57/34 130/58/34
f 131/39/34 132/25/34 133/59/34
f 134/50/34 135/52/34 136/60/34
f 127/47/34 137/38/34 125/55/34
f 130/58/34 125/55/34 137/38/34
f 130/58/34 138/37/34 128/27/34
f 129/57/34 139/26/34 131/39/34
f 135/52/34 140/61/34 136/60/34
f 137/38/34 138/37/34 130/58/34
f 133/59/34 129/57/34 131/39/34
f 133/59/34 132/25/34 141/49/34
f 142/62/34 141/49/34 143/48/34
f 144/53/34 145/63/34 146/64/34
f 147/65/34 148/51/34 134/50/34
f 136/60/34 149/66/34 134/50/34
f 150/67/34 140/61/34 135/52/34
f 151/68/34 150/67/34 152/21/34
f 128/27/34 139/26/34 129/57/34
f 143/48/34 153/69/34 142/62/34
f 146/64/34 143/48/34 144/53/34
f 154/42/34 155/70/34 156/71/34
f 157/44/34 158/43/34 159/72/34
f 149/66/34 160/73/34 134/50/34
f 152/21/34 161/20/34 151/68/34
f 162/19/34 163/32/34 164/74/34
f 141/49/34 142/62/34 133/59/34
f 144/53/34 165/75/34 145/63/34
f 166/76/34 165/75/34 144/53/34
f 156/71/34 166/76/34 167/40/34
f 156/71/34 168/54/34 154/42/34
f 155/70/34 169/41/34 157/44/34
f 159/72/34 158/43/34 148/51/34
f 135/52/34 152/21/34 150/67/34
f 170/77/34 171/28/34 172/24/34
f 173/78/34 172/24/34 162/19/34
f 164/74/34 174/79/34 162/19/34
f 175/29/34 176/80/34 177/81/34
f 178/33/34 179/36/34 180/82/34
f 180/82/34 179/36/34 181/35/34
f 182/83/34 181/35/34 183/46/34
f 127/47/34 184/84/34 185/85/34
f 146/64/34 153/69/34 143/48/34
f 167/40/34 168/54/34 156/71/34
f 159/72/34 155/70/34 157/44/34
f 134/50/34 160/73/34 147/65/34
f 186/23/34 187/86/34 151/68/34
f 188/45/34 171/28/34 170/77/34
f 162/19/34 189/87/34 173/78/34
f 163/32/34 190/88/34 164/74/34
f 191/89/34 190/88/34 163/32/34
f 177/81/34 191/89/34 192/31/34
f 177/81/34 193/30/34 175/29/34
f 176/80/34 194/34/34 178/33/34
f 183/46/34 195/90/34 182/83/34
f 185/85/34 183/46/34 127/47/34
f 144/53/34 167/40/34 166/76/34
f 148/51/34 147/65/34 159/72/34
f 151/68/34 161/20/34 186/23/34
f 187/86/34 196/22/34 188/45/34
f 174/79/34 189/87/34 162/19/34
f 192/31/34 193/30/34 177/81/34
f 180/82/34 176/80/34 178/33/34
f 185/85/34 195/90/34 183/46/34
f 154/42/34 169/41/34 155/70/34
f 170/77/34 187/86/34 188/45/34
f 163/32/34 192/31/34 191/89/34
f 181/35/34 182/83/34 180/82/34
f 186/23/34 196/22/34 187/86/34
f 175/29/34 194/34/34 176/80/34
f 172/24/34 173/78/34 170/77/34
f 126/56/34 184/84/34 127/47/34
f 197/3/9 198/4/9 199/1/9
f 199/1/9 200/2/9 197/3/9
f 201/91/34 202/92/34 203/93/34
f 203/93/34 204/94/34 201/91/34
f 202/92/34 201/91/34 205/95/34
f 206/96/34 207/97/34 208/98/34
f 206/96/34 209/99/34 210/100/34
f 211/101/34 212/102/34 213/103/34
f 211/101/34 214/104/34 215/105/34
f 214/104/34 211/101/34 216/106/34
f 204/94/34 217/107/34 201/91/34
f 205/95/34 218/108/34 202/92/34
f 208/98/34 219/109/34 206/96/34
f 206/96/34 220/110/34 209/99/34
f 221/111/34 222/112/34 223/113/34
f 215/105/34 212/102/34 211/101/34
f 216/106/34 224/114/34 214/104/34
f 201/91/34 225/115/34 211/101/34
f 218/108/34 226/116/34 202/92/34
f 210/100/34 207/97/34 206/96/34
f 222/112/34 221/111/34 227/117/34
f 223/113/34 228/118/34 221/111/34
f 224/114/34 229/119/34 214/104/34
f 217/107/34 225/115/34 201/91/34
f 206/96/34 230/120/34 220/110/34
f 206/96/34 231/121/34 232/122/34
f 228/118/34 233/123/34 221/111/34
f 232/122/34 231/121/34 234/124/34
f 211/101/34 235/125/34 201/91/34
f 206/96/34 201/91/34 235/125/34
f 232/122/34 230/120/34 206/96/34
f 234/124/34 222/112/34 232/122/34
f 235/125/34 231/121/34 206/96/34
f 227/117/34 232/122/34 222/112/34
f 219/109/34 236/126/34 206/96/34
f 213/103/34 235/125/34 211/101/34
f 237/2/10 238/1/10 239/4/10
f 239/4/10 240/3/10 237/2/10
f 241/4/19 242/3/19 243/2/19
f 243/2/19 244/1/19 241/4/19
f 245/3/1 246/4/1 247/1/1
f 247/1/1 248/2/1 245/3/1
s 1
f 249/18/2 250/3/1 251/2/1
f 252/16/3 249/18/2 253/17/2
f 254/14/4 252/16/3 255/15/3
f 256/12/5 254/14/4 257/13/4
f 258/10/6 256/12/5 259/11/5
f 260/8/7 258/10/6 261/9/6
f 262/6/8 260/8/7 263/7/7
f 264/4/9 262/6/8 265/5/8
f 265/5/8 266/1/9 264/4/9
f 263/7/7 265/5/8 262/6/8
f 261/9/6 263/7/7 260/8/7
f 259/11/5 261/9/6 258/10/6
f 257/13/4 259/11/5 256/12/5
f 255/15/3 257/13/4 254/14/4
f 253/17/2 255/15/3 252/16/3
f 251/2/1 253/17/2 249/18/2
f 267/18/20 268/3/1 269/2/1
f 270/16/21 267/18/20 271/17/20
f 272/14/22 270/16/21 273/15/21
f 274/12/23 272/14/22 275/13/22
f 276/10/24 274/12/23 277/11/23
f 278/8/25 276/10/24 279/9/24
f 280/6/26 278/8/25 281/7/25
f 282/4/19 280/6/26 283/5/26
f 283/5/26 284/1/19 282/4/19
f 281/7/25 283/5/26 280/6/26
f 279/9/24 281/7/25 278/8/25
f 277/11/23 279/9/24 276/10/24
f 275/13/22 277/11/23 274/12/23
f 273/15/21 275/13/22 272/14/22
f 271/17/20 273/15/21 270/16/21
f 269/2/1 271/17/20 267/18/20
f 285/18/27 286/3/10 287/2/10
f 288/16/28 285/18/27 289/17/27
f 290/14/29 288/16/28 291/15/28
f 292/12/30 290/14/29 293/13/29
f 294/10/31 292/12/30 295/11/30
f 296/8/32 294/10/31 297/9/31
f 298/6/33 296/8/32 299/7/32
f 300/4/19 298/6/33 301/5/33
f 301/5/33 302/1/19 300/4/19
f 299/7/32 301/5/33 298/6/33
f 297/9/31 299/7/32 296/8/32
f 295/11/30 297/9/31 294/10/31
f 293/13/29 295/11/30 292/12/30
f 291/15/28 293/13/29 290/14/29
f 289/17/27 291/15/28 288/16/28
f 287/2/10 289/17/27 285/18/27
f 303/18/11 304/3/10 305/2/10
f 306/16/12 303/18/11 307/17/11
f 308/14/13 306/16/12 309/15/12
f 310/12/14 308/14/13 311/13/13
f 312/10/15 310/12/14 313/11/14
f 314/8/16 312/10/15 315/9/15
f 316/6/17 314/8/16 317/7/16
f 318/4/9 316/6/17 319/5/17
f 319/5/17 320/1/9 318/4/9
f 317/7/16 319/5/17 316/6/17
f 315/9/15 317/7/16 314/8/16
f 313/11/14 315/9/15 312/10/15
f 311/13/13 313/11/14 310/12/14
f 309/15/12 311/13/13 308/14/13
f 307/17/11 309/15/12 306/16/12
f 305/2/10 307/17/11 303/18/11
o Part_2.003
v 0.462335 -0.177150 0.217060
v 0.462335 -0.177150 0.212060
v 0.167335 -0.177150 0.212060
v 0.167335 -0.177150 0.217060
v 0.167335 -0.177150 0.217060
v 0.167335 -0.177150 0.212060
v 0.165384 -0.177342 0.212060
v 0.165384 -0.177342 0.217060
v 0.163508 -0.177911 0.212060
v 0.163508 -0.177911 0.217060
v 0.161779 -0.178836 0.212060
v 0.161779 -0.178836 0.217060
v 0.160264 -0.180079 0.212060
v 0.160264 -0.180079 0.217060
v 0.159020 -0.181595 0.212060
v 0.159020 -0.181595 0.217060
v 0.158096 -0.183323 0.212060
v 0.158096 -0.183323 0.217060
v 0.157527 -0.185199 0.212060
v 0.157527 -0.185199 0.217060
v 0.157335 -0.187150 0.212060
v 0.157335 -0.187150 0.217060
v 0.157335 -0.187150 0.217060
v 0.157335 -0.187150 0.212060
v 0.157335 -0.467150 0.212060
v 0.157335 -0.467150 0.217060
v 0.167335 -0.477150 0.212060
v 0.167335 -0.477150 0.217060
v 0.165384 -0.476958 0.217060
v 0.165384 -0.476958 0.212060
v 0.163508 -0.476389 0.217060
v 0.163508 -0.476389 0.212060
v 0.161779 -0.475465 0.217060
v 0.161779 -0.475465 0.212060
v 0.160264 -0.474221 0.217060
v 0.160264 -0.474221 0.212060
v 0.159020 -0.472706 0.217060
v 0.159020 -0.472706 0.212060
v 0.158096 -0.470977 0.217060
v 0.158096 -0.470977 0.212060
v 0.157527 -0.469101 0.217060
v 0.157527 -0.469101 0.212060
v 0.157335 -0.467150 0.217060
v 0.157335 -0.467150 0.212060
v 0.462335 -0.477150 0.212060
v 0.462335 -0.477150 0.217060
v 0.167335 -0.477150 0.217060
v 0.167335 -0.477150 0.212060
v 0.157335 -0.467150 0.217060
v 0.161779 -0.475465 0.217060
v 0.163508 -0.476389 0.217060
v 0.159020 -0.472706 0.217060
v 0.160264 -0.474221 0.217060
v 0.157527 -0.469101 0.217060
v 0.472143 -0.185199 0.217060
v 0.469406 -0.180079 0.217060
v 0.467890 -0.178836 0.217060
v 0.471574 -0.183323 0.217060
v 0.470649 -0.181595 0.217060
v 0.165384 -0.476958 0.217060
v 0.158096 -0.470977 0.217060
v 0.167335 -0.177150 0.217060
v 0.158096 -0.183323 0.217060
v 0.157527 -0.185199 0.217060
v 0.160264 -0.180079 0.217060
v 0.159020 -0.181595 0.217060
v 0.165384 -0.177342 0.217060
v 0.466162 -0.177911 0.217060
v 0.464286 -0.177342 0.217060
v 0.471574 -0.470977 0.217060
v 0.466162 -0.476389 0.217060
v 0.467890 -0.475465 0.217060
v 0.167335 -0.477150 0.217060
v 0.157335 -0.187150 0.217060
v 0.163508 -0.177911 0.217060
v 0.469406 -0.474221 0.217060
v 0.462335 -0.477150 0.217060
v 0.464286 -0.476958 0.217060
v 0.161779 -0.178836 0.217060
v 0.462335 -0.177150 0.217060
v 0.472335 -0.187150 0.217060
v 0.472335 -0.467150 0.217060
v 0.472143 -0.469101 0.217060
v 0.470649 -0.472706 0.217060
v 0.471574 -0.470977 0.212060
v 0.469406 -0.474221 0.212060
v 0.467890 -0.475465 0.212060
v 0.466162 -0.476389 0.212060
v 0.464286 -0.476958 0.212060
v 0.470649 -0.472706 0.212060
v 0.472143 -0.185199 0.212060
v 0.469406 -0.180079 0.212060
v 0.470649 -0.181595 0.212060
v 0.466162 -0.177911 0.212060
v 0.467890 -0.178836 0.212060
v 0.462335 -0.477150 0.212060
v 0.472335 -0.467150 0.212060
v 0.472143 -0.469101 0.212060
v 0.462335 -0.177150 0.212060
v 0.464286 -0.177342 0.212060
v 0.167335 -0.177150 0.212060
v 0.160264 -0.180079 0.212060
v 0.161779 -0.178836 0.212060
v 0.158096 -0.183323 0.212060
v 0.159020 -0.181595 0.212060
v 0.157335 -0.187150 0.212060
v 0.157527 -0.185199 0.212060
v 0.472335 -0.187150 0.212060
v 0.163508 -0.177911 0.212060
v 0.159020 -0.472706 0.212060
v 0.158096 -0.470977 0.212060
v 0.157527 -0.469101 0.212060
v 0.157335 -0.467150 0.212060
v 0.161779 -0.475465 0.212060
v 0.160264 -0.474221 0.212060
v 0.165384 -0.476958 0.212060
v 0.163508 -0.476389 0.212060
v 0.471574 -0.183323 0.212060
v 0.167335 -0.477150 0.212060
v 0.165384 -0.177342 0.212060
v 0.472335 -0.467150 0.217060
v 0.472335 -0.467150 0.212060
v 0.472335 -0.187150 0.212060
v 0.472335 -0.187150 0.217060
v 0.462335 -0.177150 0.212060
v 0.462335 -0.177150 0.217060
v 0.464286 -0.177342 0.217060
v 0.464286 -0.177342 0.212060
v 0.466162 -0.177911 0.217060
v 0.466162 -0.177911 0.212060
v 0.467890 -0.178836 0.217060
v 0.467890 -0.178836 0.212060
v 0.469406 -0.180079 0.217060
v 0.469406 -0.180079 0.212060
v 0.470649 -0.181595 0.217060
v 0.470649 -0.181595 0.212060
v 0.471574 -0.183323 0.217060
v 0.471574 -0.183323 0.212060
v 0.472143 -0.185199 0.217060
v 0.472143 -0.185199 0.212060
v 0.472335 -0.187150 0.217060
v 0.472335 -0.187150 0.212060
v 0.462335 -0.477150 0.217060
v 0.462335 -0.477150 0.212060
v 0.464286 -0.476958 0.212060
v 0.464286 -0.476958 0.217060
v 0.466162 -0.476389 0.212060
v 0.466162 -0.476389 0.217060
v 0.467890 -0.475465 0.212060
v 0.467890 -0.475465 0.217060
v 0.469406 -0.474221 0.212060
v 0.469406 -0.474221 0.217060
v 0.470649 -0.472706 0.212060
v 0.470649 -0.472706 0.217060
v 0.471574 -0.470977 0.212060
v 0.471574 -0.470977 0.217060
v 0.472143 -0.469101 0.212060
v 0.472143 -0.469101 0.217060
v 0.472335 -0.467150 0.212060
v 0.472335 -0.467150 0.217060
vn -0.0000 1.0000 -0.0000
vn -0.1951 0.9808 -0.0000
vn -0.3827 0.9239 -0.0000
vn -0.5556 0.8315 -0.0000
vn -0.7071 0.7071 -0.0000
vn -0.8315 0.5556 -0.0000
vn -0.9239 0.3827 -0.0000
vn -0.9808 0.1951 -0.0000
vn -1.0000 -0.0000 -0.0000
vn -0.0000 -1.0000 -0.0000
vn -0.1951 -0.9808 -0.0000
vn -0.3827 -0.9239 -0.0000
vn -0.5556 -0.8315 -0.0000
vn -0.7071 -0.7071 -0.0000
vn -0.8315 -0.5556 -0.0000
vn -0.9239 -0.3827 -0.0000
vn -0.9808 -0.1951 -0.0000
vn -0.0000 -0.0000 1.0000
vn 0.0001 -0.0000 1.0000
vn -0.0001 -0.0000 1.0000
vn -0.0000 -0.0000 -1.0000
vn 1.0000 -0.0000 -0.0000
vn 0.1951 0.9808 -0.0000
vn 0.3827 0.9239 -0.0000
vn 0.5556 0.8315 -0.0000
vn 0.7071 0.7071 -0.0000
vn 0.8315 0.5556 -0.0000
vn 0.9239 0.3827 -0.0000
vn 0.9808 0.1951 -0.0000
vn 0.1951 -0.9808 -0.0000
vn 0.3827 -0.9239 -0.0000
vn 0.5556 -0.8315 -0.0000
vn 0.7071 -0.7071 -0.0000
vn 0.8315 -0.5556 -0.0000
vn 0.9239 -0.3827 -0.0000
vn 0.9808 -0.1951 -0.0000
vt 1.000000 0.000000
vt 0.000000 0.000000
vt 0.000000 1.000000
vt 1.000000 1.000000
vt 0.125000 1.000000
vt 0.125000 0.000000
vt 0.250000 1.000000
vt 0.250000 0.000000
vt 0.375000 1.000000
vt 0.375000 0.000000
vt 0.500000 1.000000
vt 0.500000 0.000000
vt 0.625000 1.000000
vt 0.625000 0.000000
vt 0.750000 1.000000
vt 0.750000 0.000000
vt 0.875000 1.000000
vt 0.875000 0.000000
vt 0.000000 0.966667
vt 0.014109 0.994382
vt 0.019597 0.997463
vt 0.005350 0.985186
vt 0.009298 0.990237
vt 0.000610 0.973170
vt 0.999390 0.026830
vt 0.990702 0.009763
vt 0.985891 0.005618
vt 0.997583 0.020577
vt 0.994650 0.014814
vt 0.025553 0.999359
vt 0.002417 0.979423
vt 0.031746 0.000000
vt 0.002417 0.020577
vt 0.000610 0.026830
vt 0.009298 0.009763
vt 0.005350 0.014814
vt 0.025553 0.000641
vt 0.980403 0.002537
vt 0.974447 0.000641
vt 0.997583 0.979423
vt 0.980403 0.997463
vt 0.985891 0.994382
vt 0.031746 1.000000
vt 0.000000 0.033333
vt 0.019597 0.002537
vt 0.990702 0.990237
vt 0.968254 1.000000
vt 0.974447 0.999359
vt 0.014109 0.005618
vt 0.968254 0.000000
vt 1.000000 0.033333
vt 1.000000 0.966667
vt 0.999390 0.973170
vt 0.994650 0.985186
s 0
f 321/127/35 322/128/35 323/129/35
f 323/129/35 324/130/35 321/127/35
s 1
f 325/128/35 326/129/35 327/131/36
f 328/132/36 327/131/36 329/133/37
f 330/134/37 329/133/37 331/135/38
f 332/136/38 331/135/38 333/137/39
f 334/138/39 333/137/39 335/139/40
f 336/140/40 335/139/40 337/141/41
f 338/142/41 337/141/41 339/143/42
f 340/144/42 339/143/42 341/130/43
f 341/130/43 342/127/43 340/144/42
f 339/143/42 340/144/42 338/142/41
f 337/141/41 338/142/41 336/140/40
f 335/139/40 336/140/40 334/138/39
f 333/137/39 334/138/39 332/136/38
f 331/135/38 332/136/38 330/134/37
f 329/133/37 330/134/37 328/132/36
f 327/131/36 328/132/36 325/128/35
s 0
f 343/128/43 344/127/43 345/130/43
f 345/130/43 346/129/43 343/128/43
s 1
f 347/128/44 348/129/44 349/131/45
f 350/132/45 349/131/45 351/133/46
f 352/134/46 351/133/46 353/135/47
f 354/136/47 353/135/47 355/137/48
f 356/138/48 355/137/48 357/139/49
f 358/140/49 357/139/49 359/141/50
f 360/142/50 359/141/50 361/143/51
f 362/144/51 361/143/51 363/130/43
f 363/130/43 364/127/43 362/144/51
f 361/143/51 362/144/51 360/142/50
f 359/141/50 360/142/50 358/140/49
f 357/139/49 358/140/49 356/138/48
f 355/137/48 356/138/48 354/136/47
f 353/135/47 354/136/47 352/134/46
f 351/133/46 352/134/46 350/132/45
f 349/131/45 350/132/45 347/128/44
s 0
f 365/128/44 366/127/44 367/130/44
f 367/130/44 368/129/44 365/128/44
f 369/145/52 370/146/52 371/147/52
f 369/145/52 372/148/52 373/149/52
f 372/148/52 369/145/52 374/150/52
f 375/151/52 376/152/52 377/153/52
f 375/151/53 378/154/53 379/155/53
f 371/147/52 380/156/52 369/145/52
f 374/150/54 381/157/54 372/148/54
f 382/158/52 383/159/52 384/160/52
f 382/158/52 385/161/52 386/162/52
f 385/161/52 382/158/52 387/163/52
f 375/151/52 388/164/52 389/165/52
f 379/155/52 376/152/52 375/151/52
f 390/166/52 391/167/52 392/168/52
f 373/149/52 370/146/52 369/145/52
f 393/169/52 382/158/52 394/170/52
f 386/162/52 383/159/52 382/158/52
f 387/163/52 395/171/52 385/161/52
f 377/153/52 388/164/52 375/151/52
f 392/168/54 396/172/54 390/166/54
f 390/166/52 397/173/52 398/174/52
f 394/170/52 369/145/52 393/169/52
f 395/171/52 399/175/52 385/161/52
f 400/176/52 401/177/52 375/151/52
f 400/176/52 397/173/52 402/178/52
f 397/173/52 390/166/52 403/179/52
f 398/174/52 391/167/52 390/166/52
f 400/176/52 382/158/52 393/169/52
f 384/160/52 394/170/52 382/158/52
f 402/178/52 401/177/52 400/176/52
f 396/172/53 404/180/53 390/166/53
f 380/156/52 393/169/52 369/145/52
f 403/179/52 402/178/52 397/173/52
f 389/165/52 400/176/52 375/151/52
f 393/169/52 397/173/52 400/176/52
f 405/166/55 406/172/55 407/168/55
f 405/166/55 408/167/55 409/174/55
f 405/166/55 410/180/55 406/172/55
f 411/151/55 412/152/55 413/155/55
f 411/151/55 414/164/55 415/153/55
f 407/168/55 408/167/55 405/166/55
f 416/173/55 417/178/55 418/179/55
f 415/153/55 412/152/55 411/151/55
f 411/151/55 419/176/55 420/165/55
f 421/158/55 422/161/55 423/175/55
f 421/158/55 424/159/55 425/162/55
f 421/158/55 426/170/55 427/160/55
f 418/179/55 405/166/55 416/173/55
f 416/173/55 419/176/55 428/177/55
f 420/165/55 414/164/55 411/151/55
f 423/175/55 429/171/55 421/158/55
f 427/160/55 424/159/55 421/158/55
f 430/148/55 431/157/55 432/150/55
f 433/145/55 434/146/55 435/149/55
f 433/145/55 436/156/55 437/147/55
f 428/177/55 417/178/55 416/173/55
f 413/155/55 438/154/55 411/151/55
f 425/162/55 422/161/55 421/158/55
f 421/158/55 439/169/55 433/145/55
f 435/149/55 430/148/55 433/145/55
f 433/145/55 439/169/55 436/156/55
f 419/176/55 416/173/55 439/169/55
f 411/151/55 428/177/55 419/176/55
f 433/145/55 426/170/55 421/158/55
f 437/147/55 434/146/55 433/145/55
f 409/174/55 416/173/55 405/166/55
f 432/150/55 433/145/55 430/148/55
f 429/171/55 440/163/55 421/158/55
f 439/169/55 421/158/55 419/176/55
f 441/129/56 442/130/56 443/127/56
f 443/127/56 444/128/56 441/129/56
s 1
f 445/128/35 446/129/35 447/131/57
f 448/132/57 447/131/57 449/133/58
f 450/134/58 449/133/58 451/135/59
f 452/136/59 451/135/59 453/137/60
f 454/138/60 453/137/60 455/139/61
f 456/140/61 455/139/61 457/141/62
f 458/142/62 457/141/62 459/143/63
f 460/144/63 459/143/63 461/130/56
f 461/130/56 462/127/56 460/144/63
f 459/143/63 460/144/63 458/142/62
f 457/141/62 458/142/62 456/140/61
f 455/139/61 456/140/61 454/138/60
f 453/137/60 454/138/60 452/136/59
f 451/135/59 452/136/59 450/134/58
f 449/133/58 450/134/58 448/132/57
f 447/131/57 448/132/57 445/128/35
f 463/128/44 464/129/44 465/131/64
f 466/132/64 465/131/64 467/133/65
f 468/134/65 467/133/65 469/135/66
f 470/136/66 469/135/66 471/137/67
f 472/138/67 471/137/67 473/139/68
f 474/140/68 473/139/68 475/141/69
f 476/142/69 475/141/69 477/143/70
f 478/144/70 477/143/70 479/130/56
f 479/130/56 480/127/56 478/144/70
f 477/143/70 478/144/70 476/142/69
f 475/141/69 476/142/69 474/140/68
f 473/139/68 474/140/68 472/138/67
f 471/137/67 472/138/67 470/136/66
f 469/135/66 470/136/66 468/134/65
f 467/133/65 468/134/65 466/132/64
f 465/131/64 466/132/64 463/128/44
