# Blender 5.0.1
# www.blender.org
o Part_1.006
v 0.793057 -0.710455 -0.427837
v 0.790726 -0.747450 -0.414477
v 0.799260 -0.609264 -0.415778
v 0.809889 -0.407866 -0.386989
v 0.817275 -0.212884 -0.354291
v 0.817300 0.348505 -0.353682
v 0.810481 0.500013 -0.384860
v 0.802376 0.624689 -0.408403
v 0.766526 -1.096698 -0.328718
v 0.764518 -1.124472 -0.321369
v 0.763360 -1.140486 -0.313313
v 0.762658 -1.150184 -0.302496
v 0.762336 -1.154632 -0.290867
v 0.784712 -0.838753 -0.386759
v 0.775885 -0.966042 -0.356411
v 0.552312 -1.154336 -0.292428
v 0.522059 -0.718390 -0.424907
v 0.534291 -0.901923 -0.370801
v 0.526398 -0.785245 -0.402343
v 0.551755 -1.146632 -0.307826
v 0.550757 -1.132845 -0.317863
v 0.549085 -1.109867 -0.325805
v 0.628542 -0.367880 -0.562927
v 0.686713 -0.366432 -0.563011
v 0.627575 -0.411199 -0.550906
v 0.688023 -0.418704 -0.548673
v 0.624377 -0.459324 -0.534549
v 0.693069 -0.476673 -0.527918
v 0.722271 -0.559234 -0.492609
v 0.705191 -0.525251 -0.507613
v 0.603509 -0.548014 -0.497620
v 0.615548 -0.510345 -0.514000
v 0.758737 -0.614139 -0.467998
v 0.588974 -0.579272 -0.483651
v 0.548553 -0.649387 -0.452535
v 0.779684 -0.661511 -0.447492
v 0.528092 -0.698635 -0.432428
v 0.497845 -0.228916 -0.362171
v 0.503352 -0.373577 -0.386886
v 0.510289 -0.518442 -0.405102
v 0.628463 0.352820 -0.562701
v 0.686715 0.344220 -0.563034
v 0.497402 0.347413 -0.357772
v 0.511942 0.622503 -0.408837
v 0.500985 0.437186 -0.378738
v 0.628229 0.573772 -0.558310
v 0.627879 0.988878 -0.554099
v 0.625779 1.420217 -0.540620
v 0.627305 1.218930 -0.549386
v 0.623054 1.541522 -0.530849
v 0.621059 1.589249 -0.525497
v 0.613649 1.535809 -0.510973
v 0.604398 1.468403 -0.498576
v 0.583742 1.313813 -0.479373
v 0.548237 1.018048 -0.452210
v 0.528319 0.822051 -0.432791
v 0.656908 1.841362 -0.410977
v 0.658814 1.834983 -0.426338
v 0.654651 1.826631 -0.440763
v 0.660842 1.820764 -0.448644
v 0.652128 1.808844 -0.461450
v 0.663913 1.799225 -0.469232
v 0.649222 1.788458 -0.475877
v 0.667246 1.775835 -0.482661
v 0.645823 1.764602 -0.487766
v 0.672170 1.741244 -0.496572
v 0.640925 1.730158 -0.499632
v 0.681883 1.672686 -0.512935
v 0.631439 1.663196 -0.514895
v 0.694059 1.586151 -0.526107
v 0.691095 1.499127 -0.534762
v 0.689098 1.378748 -0.542845
v 0.687736 1.163602 -0.551046
v 0.686946 0.510725 -0.559128
v 0.699426 1.547374 -0.515678
v 0.708558 1.480903 -0.504227
v 0.720214 1.394612 -0.493995
v 0.752801 1.137437 -0.472226
v 0.770898 0.976102 -0.457067
v 0.783420 0.851122 -0.442517
v 0.792904 0.746616 -0.428315
v 0.791176 -0.741248 -0.028135
v 0.800619 -0.584982 -0.028135
v 0.811603 -0.368000 -0.028135
v 0.817335 -0.209605 -0.028135
v 0.805893 0.572762 -0.028135
v 0.817112 0.358446 -0.028135
v 0.762314 -1.154648 -0.028135
v 0.552356 -1.154644 -0.028135
v 0.524053 -0.749754 -0.028135
v 0.498311 -0.239273 -0.028136
v 0.508345 -0.481595 -0.028135
v 0.497352 0.346954 -0.028135
v 0.503953 0.493489 -0.028135
v 0.591972 1.376104 -0.028135
v 0.557236 1.097075 -0.028135
v 0.532588 0.866274 -0.028135
v 0.657335 1.845350 -0.028135
v 0.631875 1.666238 -0.028135
v 0.517044 0.688678 -0.028135
v 0.794971 0.722672 -0.028135
v 0.740445 1.238356 -0.028135
v 0.770242 0.983001 -0.028135
v 0.695215 1.578551 -0.028135
vn 0.9902 -0.0140 -0.1392
vn 0.9993 -0.0362 0.0002
vn 0.9991 -0.0431 0.0004
vn 0.9847 -0.0234 -0.1727
vn 0.9985 -0.0556 0.0004
vn 0.9718 -0.0293 -0.2339
vn 0.9979 -0.0647 0.0006
vn 1.0000 0.0004 -0.0002
vn 0.9865 0.0290 -0.1612
vn 0.9987 0.0504 0.0014
vn 0.9908 0.0169 -0.1345
vn 0.9980 0.0638 -0.0002
vn 0.9966 0.0826 0.0002
vn 0.9755 0.0363 -0.2171
vn 0.7030 -0.2025 -0.6818
vn 0.9975 -0.0703 0.0009
vn 0.6944 -0.2121 -0.6876
vn 0.6747 -0.3008 -0.6740
vn 0.6514 -0.4861 -0.5825
vn 0.6456 -0.6629 -0.3790
vn 0.8417 -0.5117 -0.1724
vn 0.7061 -0.2302 -0.6697
vn 0.7046 -0.2653 -0.6581
vn -0.0000 -1.0000 -0.0012
vn -0.7053 -0.2494 -0.6636
vn -0.9980 -0.0639 0.0007
vn -0.7058 -0.2480 -0.6636
vn -0.7053 -0.2135 -0.6760
vn -0.9975 -0.0703 0.0008
vn -0.6858 -0.2386 -0.6875
vn 0.8441 -0.1221 -0.5221
vn 0.6120 -0.1970 -0.7659
vn -0.8398 -0.1290 -0.5274
vn -0.6305 -0.1943 -0.7515
vn -0.5486 -0.2180 -0.8071
vn -0.4560 -0.2298 -0.8598
vn 0.4940 -0.2229 -0.8404
vn 0.3591 -0.2301 -0.9045
vn -0.3298 -0.2246 -0.9169
vn 0.3001 -0.2249 -0.9270
vn -0.3796 -0.2309 -0.8959
vn 0.3823 -0.2099 -0.8999
vn -0.3866 -0.2051 -0.8991
vn 0.4755 -0.2093 -0.8545
vn 0.7042 -0.2603 -0.6605
vn -0.4425 -0.1976 -0.8747
vn -0.8320 -0.5084 -0.2222
vn -0.6372 -0.6038 -0.4790
vn -0.6628 -0.3798 -0.6454
vn -0.9834 -0.0216 -0.1800
vn -0.9987 -0.0502 0.0008
vn -0.9992 -0.0406 0.0011
vn -0.9648 -0.0280 -0.2616
vn -0.0057 0.0003 -1.0000
vn -0.0014 -0.0000 -1.0000
vn -1.0000 -0.0016 0.0013
vn -0.9946 0.0156 -0.1030
vn -0.9990 0.0442 0.0010
vn -0.9853 0.0253 -0.1690
vn -0.9984 0.0558 0.0011
vn -0.9970 0.0773 0.0010
vn -0.9556 0.0369 -0.2923
vn -0.9906 -0.0144 -0.1360
vn -0.8520 0.0108 -0.5234
vn -0.6587 0.0081 -0.7524
vn -0.6785 0.0074 -0.7346
vn -0.6388 0.0225 -0.7690
vn -0.6007 0.0396 -0.7985
vn -0.5674 0.0597 -0.8213
vn -0.6976 0.1628 -0.6977
vn -0.9695 0.0723 -0.2343
vn -0.9464 0.0725 -0.3149
vn -0.9145 0.0698 -0.3985
vn -0.8955 0.0616 -0.4407
vn -0.9207 0.0539 -0.3866
vn 0.5212 0.7911 -0.3203
vn -0.6094 0.6903 -0.3900
vn -0.0274 0.9996 0.0058
vn 0.6255 0.6358 -0.4523
vn -0.6248 0.5777 -0.5252
vn 0.6434 0.5035 -0.5767
vn -0.6629 0.4463 -0.6012
vn -0.6688 0.3644 -0.6480
vn 0.6624 0.3967 -0.6355
vn 0.6688 0.3041 -0.6784
vn -0.6739 0.2788 -0.6842
vn -0.6814 0.2248 -0.6965
vn 0.4320 0.2317 -0.8716
vn 0.4626 0.1527 -0.8733
vn 0.5783 0.0525 -0.8141
vn 0.6121 0.0323 -0.7901
vn 0.6433 0.0160 -0.7654
vn 0.6739 0.0124 -0.7387
vn 0.8882 0.0095 -0.4594
vn 0.9685 0.0686 -0.2395
vn 0.9407 0.0727 -0.3312
vn 0.9085 0.0726 -0.4116
vn 0.8797 0.0669 -0.4708
vn 0.9055 0.0536 -0.4209
vn 0.9371 0.0459 -0.3459
vn 0.9563 0.0439 -0.2891
vn -0.9934 0.1150 0.0007
vn -0.9915 0.1300 0.0007
vn -0.9953 0.0966 0.0009
vn -0.9903 0.1388 0.0002
vn 0.0008 0.9999 -0.0104
vn 0.9944 0.1053 0.0011
vn 0.9923 0.1239 0.0008
vn 0.9912 0.1327 0.0009
vn 0.9902 0.1394 -0.0002
vn 0.9899 0.1419 -0.0009
vn 1.0000 -0.0000 0.0006
vn -0.0014 -1.0000 -0.0001
vn -1.0000 -0.0008 -0.0002
vn -0.0000 -0.0000 1.0000
vn -0.0001 -0.0000 1.0000
vt 0.006818 0.179205
vt 0.000000 0.975333
vt 0.320005 0.975333
vt 0.400684 0.099065
vt 0.758317 0.975333
vt 0.807422 0.028217
vt 0.956933 0.975040
vt 1.000000 0.030105
vt 1.000000 1.000000
vt 0.000004 0.030105
vt 0.538407 0.082574
vt 0.960953 0.974762
vt 0.990661 0.160059
vt 0.321237 0.974762
vt 0.141034 0.974898
vt 0.166159 0.023664
vt 0.510194 0.130585
vt 0.999999 0.974088
vt 0.849406 0.202375
vt 0.921327 0.221768
vt 0.962412 0.242678
vt 0.987659 0.269822
vt 0.999791 0.299314
vt 0.005556 0.974088
vt 0.180025 0.051017
vt -0.000007 -0.000002
vt 0.000000 0.037021
vt 0.000000 1.000000
vt 1.000000 0.037022
vt 0.155048 0.023036
vt 0.130647 0.974507
vt 0.999335 0.000074
vt 0.343923 0.092530
vt 0.999987 0.974088
vt 0.883296 0.211035
vt 0.000532 0.392463
vt 0.058648 0.387023
vt 0.002067 0.607626
vt 0.050629 0.611212
vt 0.105885 0.624170
vt 0.165573 0.656246
vt 0.126011 0.366223
vt 0.182916 0.322038
vt 0.246088 0.754755
vt 0.222903 0.260775
vt 0.209722 0.700775
vt 0.286968 0.130027
vt 0.326682 0.900250
vt 0.339991 0.050657
vt 0.393170 0.000396
vt 0.380532 0.976724
vt 0.995467 0.888667
vt 0.949901 0.890813
vt 0.967679 0.112097
vt 0.999271 0.113345
vt 0.926996 0.109502
vt 0.903187 0.894377
vt 0.881382 0.105278
vt 0.850825 0.900512
vt 0.824771 0.097884
vt 0.654401 0.063421
vt 0.587312 0.954967
vt 0.523651 0.030985
vt 0.470066 0.984157
vt 0.431745 0.008615
vt 0.402136 1.000022
vt 0.331357 0.090806
vt 0.549468 0.975116
vt 0.059938 0.975116
vt 0.623977 0.046127
vt 0.997947 0.975116
vt 0.000000 0.000000
vt 1.000000 0.000000
vt 1.000000 0.029801
vt -0.000000 0.029801
vt 0.993369 0.148123
vt 0.995220 0.974663
vt 0.725530 0.095946
vt 0.557911 0.974663
vt 0.145449 0.974757
vt 0.185479 0.021384
vt 0.012048 0.212221
vt 0.001799 0.462079
vt 0.063102 0.500957
vt 0.090501 0.149665
vt 0.171317 0.581202
vt 0.156774 0.086911
vt 0.243199 0.000248
vt 0.998494 0.152184
vt 0.959089 0.133401
vt 0.999372 0.464354
vt 0.970120 0.739889
vt 0.985394 0.560069
vt 0.896658 0.112592
vt 0.952869 0.839543
vt 0.919877 0.926729
vt 0.882214 0.979286
vt 0.804614 0.090468
vt 0.859744 0.999970
vt 0.790455 0.976804
vt 0.722237 0.947588
vt 0.713837 0.074163
vt 0.596705 0.880607
vt 0.622741 0.060653
vt 0.400185 0.752518
vt 0.403637 0.030056
vt 0.284545 0.667616
vt 0.283490 0.008801
vt 0.064084 0.482608
vt 0.098571 0.541301
vt 0.028474 0.513011
vt 0.117907 0.455598
vt 0.149716 0.576130
vt 0.169908 0.413121
vt 0.189475 0.615254
vt 0.224565 0.661709
vt 0.209288 0.368404
vt 0.251714 0.300692
vt 0.263938 0.728670
vt 0.323366 0.858361
vt 0.316161 0.168221
vt 0.380195 0.001637
vt 0.377935 0.999994
vt 0.408900 0.974068
vt 0.434668 0.040872
vt 0.479384 0.938502
vt 0.502066 0.068366
vt 0.609782 0.086385
vt 0.583257 0.915683
vt 0.692112 0.907295
vt 0.916320 0.099330
vt 0.884818 0.902135
vt 0.996065 0.899192
vt 1.000605 0.102194
vt 0.989160 0.532105
vt 0.957749 0.816441
vt 0.949987 0.127371
vt 0.999630 0.150083
vt 0.928768 0.910144
vt 0.895649 0.962570
vt 0.863082 0.102152
vt 0.856767 1.000083
vt 0.802664 0.983553
vt 0.725990 0.954632
vt 0.748215 0.080997
vt 0.644750 0.917041
vt 0.629782 0.066133
vt 0.418222 0.041995
vt 0.448915 0.805045
vt 0.343089 0.734791
vt 0.291752 0.021501
vt 0.266723 0.680355
vt 0.206107 0.634857
vt 0.205221 0.000214
vt 0.161466 0.044301
vt 0.138205 0.581740
vt 0.077740 0.132002
vt 0.073203 0.527435
vt 0.001259 0.216908
vt 0.001358 0.461439
vt 1.000102 0.459585
vt 0.483431 0.089637
vt 0.680389 0.980120
vt 0.426725 0.980120
vt 0.752217 0.144662
vt 0.890149 0.980120
vt 0.930322 0.183042
vt 0.004164 0.226147
vt 0.162882 0.980120
vt 0.000000 0.980120
vt 0.342847 0.052169
vt 1.000000 0.980120
vt 0.981887 0.980140
vt 0.978171 0.186301
vt 0.903893 0.164486
vt 0.790316 0.136214
vt 0.784080 0.980140
vt 0.643698 0.106267
vt 0.551965 0.980140
vt 0.409916 0.062350
vt 0.242635 0.980154
vt 0.331436 0.042583
vt 0.157056 0.026208
vt 0.235779 0.000123
vt 0.271057 0.019514
vt 0.010005 0.196854
vt 0.022594 0.152749
vt 0.042400 0.113160
vt 0.094911 0.059661
vt 0.000000 0.980140
vt 0.999721 0.009585
vt 0.000231 0.000000
vt 0.746789 0.020727
vt 0.999855 0.000008
vt 0.047574 0.014214
vt 0.977692 0.256955
vt 0.998561 0.295446
vt 0.943018 0.230626
vt 0.039603 0.154526
vt 0.104829 0.051560
vt 0.165757 0.022215
vt 0.073518 0.074822
vt 0.051832 0.098148
vt 0.033585 0.127187
vt 0.017349 0.167468
vt 0.281520 0.028316
vt 0.232883 0.000037
vt 0.063263 0.085574
vt 0.674446 0.564662
vt 0.706050 0.582727
vt 0.671803 0.670500
vt 0.670614 0.660908
vt 0.669264 0.647589
vt 0.668524 0.637866
vt 0.668593 0.602998
vt 0.669955 0.589842
vt 0.671362 0.580642
vt 0.678163 0.548987
vt 0.683815 0.528105
vt 0.688524 0.511726
vt 0.691706 0.522720
vt 0.696672 0.540531
vt 0.701014 0.557659
vt 0.704090 0.571826
vt 0.707672 0.594709
vt 0.708516 0.603703
vt 0.708394 0.639687
vt 0.707120 0.654561
vt 0.705177 0.671022
vt 0.701649 0.695876
vt 0.675399 0.695876
s 1
f 5/1/1 85/2/2 84/3/3
f 4/4/4 84/3/3 83/5/5
f 3/6/6 83/5/5 82/7/7
s 0
f 85/8/8 5/9/8 87/10/8
s 1
f 7/11/9 87/12/10 6/13/11
f 87/12/10 7/11/9 86/14/12
f 86/14/12 7/11/9 101/15/13
f 8/16/14 101/15/13 7/11/9
f 15/17/15 88/18/16 9/19/17
f 9/19/17 88/18/16 10/20/18
f 10/20/18 88/18/16 11/21/19
f 11/21/19 88/18/16 12/22/20
f 88/18/16 13/23/21 12/22/20
f 82/24/7 14/25/22 2/26/23
f 15/17/15 82/24/7 88/18/16
f 14/25/22 82/24/7 15/17/15
s 0
f 89/27/24 16/28/24 88/29/24
s 1
f 19/30/25 90/31/26 17/32/27
f 18/33/28 89/34/29 90/31/26
f 22/35/30 89/34/29 18/33/28
f 24/36/31 26/37/32 23/38/33
f 25/39/34 23/38/33 26/37/32
f 26/37/32 27/40/35 25/39/34
f 32/41/36 27/40/35 28/42/37
f 28/42/37 30/43/38 32/41/36
f 34/44/39 30/43/38 29/45/40
f 30/43/38 34/44/39 31/46/41
f 31/46/41 32/41/36 30/43/38
f 34/44/39 29/45/40 33/47/42
f 33/47/42 35/48/43 34/44/39
f 33/47/42 36/49/44 35/48/43
f 36/49/44 1/50/45 35/48/43
f 37/51/46 35/48/43 1/50/45
f 16/52/47 20/53/48 12/54/20
f 12/54/20 13/55/21 16/52/47
f 20/53/48 11/56/19 12/54/20
f 21/57/49 10/58/18 11/56/19
f 10/58/18 21/57/49 22/59/30
f 22/59/30 9/60/17 10/58/18
f 22/59/30 15/61/15 9/60/17
f 22/59/30 18/62/28 15/61/15
f 14/63/22 15/61/15 18/62/28
f 19/64/25 2/65/23 14/63/22
f 2/65/23 19/64/25 17/66/27
f 1/50/45 2/65/23 37/51/46
f 17/66/27 37/51/46 2/65/23
f 18/62/28 19/64/25 14/63/22
f 20/53/48 21/57/49 11/56/19
f 26/37/32 28/42/37 27/40/35
f 39/67/50 92/68/51 91/69/52
f 40/70/53 90/71/26 92/68/51
s 0
f 23/28/54 41/72/54 42/73/54
f 42/73/55 24/9/55 23/28/55
f 91/74/56 93/75/56 38/9/56
s 1
f 43/76/57 93/77/58 45/78/59
f 93/77/58 94/79/60 45/78/59
f 94/79/60 100/80/61 44/81/62
f 38/82/63 43/83/57 45/84/59
f 39/85/50 38/82/63 45/84/59
f 45/84/59 44/86/62 39/85/50
f 40/87/53 39/85/50 44/86/62
f 17/88/27 40/87/53 44/86/62
f 23/89/33 25/90/34 41/91/64
f 47/92/65 46/93/66 25/90/34
f 46/93/66 41/91/64 25/90/34
f 25/90/34 27/94/35 49/95/67
f 25/90/34 49/95/67 47/92/65
f 27/94/35 48/96/68 49/95/67
f 27/94/35 50/97/69 48/96/68
f 27/94/35 32/98/36 51/99/70
f 51/99/70 50/97/69 27/94/35
f 32/98/36 52/100/71 51/99/70
f 32/98/36 53/101/72 52/100/71
f 32/98/36 31/102/41 53/101/72
f 31/102/41 54/103/73 53/101/72
f 31/102/41 34/104/39 54/103/73
f 34/104/39 55/105/74 54/103/73
f 34/104/39 35/106/43 55/105/74
f 56/107/75 55/105/74 35/106/43
f 35/106/43 37/108/46 56/107/75
f 37/108/46 17/88/27 44/86/62
f 44/86/62 56/107/75 37/108/46
f 58/109/76 59/110/77 57/111/78
f 58/109/76 60/112/79 59/110/77
f 61/113/80 59/110/77 60/112/79
f 62/114/81 63/115/82 61/113/80
f 65/116/83 63/115/82 64/117/84
f 66/118/85 67/119/86 65/116/83
f 69/120/87 67/119/86 66/118/85
f 66/118/85 68/121/88 69/120/87
f 69/120/87 68/121/88 70/122/89
f 51/123/70 69/120/87 70/122/89
f 50/124/69 70/122/89 71/125/90
f 50/124/69 51/123/70 70/122/89
f 48/126/68 50/124/69 71/125/90
f 71/125/90 72/127/91 48/126/68
f 72/127/91 73/128/92 49/129/67
f 47/130/65 49/129/67 73/128/92
f 73/128/92 74/131/93 47/130/65
f 46/132/66 47/130/65 74/131/93
f 41/133/64 46/132/66 74/131/93
f 74/131/93 42/134/94 41/133/64
f 49/129/67 48/126/68 72/127/91
f 64/117/84 66/118/85 65/116/83
f 62/114/81 64/117/84 63/115/82
f 60/112/79 62/114/81 61/113/80
f 74/135/93 73/136/92 26/137/32
f 74/135/93 26/137/32 24/138/31
f 72/139/91 71/140/90 28/141/37
f 73/136/92 72/139/91 26/137/32
f 72/139/91 28/141/37 26/137/32
f 28/141/37 71/140/90 70/142/89
f 28/141/37 70/142/89 75/143/95
f 75/143/95 76/144/96 30/145/38
f 30/145/38 76/144/96 77/146/97
f 77/146/97 29/147/40 30/145/38
f 33/148/42 77/146/97 78/149/98
f 77/146/97 33/148/42 29/147/40
f 78/149/98 79/150/99 33/148/42
f 79/150/99 36/151/44 33/148/42
f 79/150/99 80/152/100 36/151/44
f 80/152/100 81/153/101 36/151/44
f 1/154/45 36/151/44 81/153/101
f 81/153/101 3/155/6 1/154/45
f 81/153/101 8/156/14 3/155/6
f 4/157/4 8/156/14 7/158/9
f 4/157/4 3/155/6 8/156/14
f 5/159/1 7/158/9 6/160/11
f 5/159/1 4/157/4 7/158/9
f 30/145/38 28/141/37 75/143/95
f 42/161/94 74/135/93 24/138/31
f 54/162/73 96/163/102 95/164/103
f 55/165/74 97/166/104 96/163/102
f 56/167/75 97/166/104 55/165/74
f 57/168/78 99/169/105 98/170/106
f 53/171/72 95/164/103 99/169/105
f 100/172/61 97/166/104 56/167/75
f 101/173/13 81/174/101 80/175/100
f 79/176/99 103/177/107 80/175/100
f 101/173/13 80/175/100 103/177/107
f 78/178/98 102/179/108 103/177/107
f 77/180/97 104/181/109 102/179/108
f 76/182/96 104/181/109 77/180/97
s 0
f 68/183/110 104/181/110 70/184/110
s 1
f 75/185/95 104/181/109 76/182/96
f 70/184/89 104/181/109 75/185/95
f 57/168/78 104/181/111 58/186/76
f 60/187/79 104/181/111 62/188/81
f 66/189/85 104/181/111 68/183/88
f 58/186/76 104/181/111 60/187/79
f 57/168/78 98/190/106 104/181/111
f 44/191/62 100/80/61 56/192/75
f 2/193/23 1/194/45 82/7/7
f 82/7/7 1/194/45 3/6/6
f 3/6/6 4/4/4 83/5/5
f 4/4/4 5/1/1 84/3/3
s 0
f 87/10/112 5/9/112 6/28/112
s 1
f 8/16/14 81/72/101 101/15/13
s 0
f 88/29/113 16/28/113 13/9/113
s 1
f 19/195/25 18/33/28 90/31/26
f 20/196/48 16/197/47 89/34/29
f 21/198/49 20/196/48 89/34/29
f 22/35/30 21/198/49 89/34/29
f 38/199/63 39/67/50 91/69/52
f 92/68/51 39/67/50 40/70/53
f 90/71/26 40/70/53 17/32/27
s 0
f 43/28/114 38/9/114 93/75/114
s 1
f 44/81/62 45/78/59 94/79/60
f 53/171/72 54/162/73 95/164/103
f 54/162/73 55/165/74 96/163/102
f 67/200/86 69/201/87 99/169/105
f 99/169/105 65/202/83 67/200/86
f 99/169/105 63/203/82 65/202/83
f 61/204/80 63/203/82 99/169/105
f 59/205/77 61/204/80 99/169/105
f 57/168/78 59/205/77 99/169/105
f 52/206/71 53/171/72 99/169/105
f 51/207/70 52/206/71 99/169/105
f 69/201/87 51/207/70 99/169/105
f 64/208/84 62/188/81 104/181/111
f 66/189/85 64/208/84 104/181/111
f 102/179/108 78/178/98 77/180/97
f 79/176/99 78/178/98 103/177/107
s 0
f 103/209/115 100/210/115 82/211/115
f 83/212/115 84/213/115 85/214/115
f 85/214/115 87/215/115 86/216/115
f 86/216/115 101/217/115 103/209/115
f 103/209/115 102/218/115 104/219/115
f 104/219/115 98/220/115 99/221/115
f 99/221/115 95/222/115 96/223/115
f 96/223/115 97/224/115 100/210/115
f 100/210/116 94/225/116 93/226/116
f 93/226/115 91/227/115 92/228/115
f 92/228/115 90/229/115 89/230/115
f 89/230/115 88/231/115 82/211/115
f 82/211/115 83/212/115 85/214/115
f 85/214/115 86/216/115 103/209/115
f 103/209/115 104/219/115 99/221/115
f 99/221/115 96/223/115 100/210/115
f 100/210/115 93/226/115 92/228/115
f 92/228/115 89/230/115 82/211/115
f 82/211/115 85/214/115 103/209/115
f 103/209/115 99/221/115 100/210/115
f 100/210/115 92/228/115 82/211/115
