# Blender 5.0.1
# www.blender.org
o Part_1.003
v -0.757930 -0.718442 -0.424908
v -0.489314 -0.748078 -0.414253
v -0.743045 -0.940198 -0.361993
v -0.752169 -0.807203 -0.395504
v -0.727688 -1.154336 -0.292428
v -0.728245 -1.146640 -0.307812
v -0.729243 -1.132845 -0.317863
v -0.730782 -1.111568 -0.325297
v -0.515146 -1.119842 -0.323180
v -0.516851 -1.143399 -0.311283
v -0.517608 -1.153861 -0.294526
v -0.494910 -0.833026 -0.388464
v -0.502389 -0.941654 -0.361677
v -0.486679 -0.710545 -0.427824
v -0.470111 -0.407890 -0.386975
v -0.462725 -0.212885 -0.354293
v -0.462700 0.348512 -0.353684
v -0.469518 0.500005 -0.384841
v -0.477622 0.624659 -0.408361
v -0.487131 0.747046 -0.428326
v -0.651706 -0.368914 -0.562817
v -0.593575 -0.365926 -0.563047
v -0.592341 -0.420123 -0.548399
v -0.654810 -0.450084 -0.538132
v -0.585433 -0.485936 -0.524131
v -0.562052 -0.552567 -0.495586
v -0.575429 -0.524093 -0.508112
v -0.676615 -0.547699 -0.497759
v -0.664653 -0.510045 -0.514125
v -0.723238 -0.634330 -0.459083
v -0.521342 -0.614099 -0.467970
v -0.691235 -0.579288 -0.483647
v -0.743384 -0.675201 -0.441764
v -0.500339 -0.661578 -0.447451
v -0.782156 -0.228881 -0.362163
v -0.776646 -0.373634 -0.386915
v -0.769709 -0.518487 -0.405149
v -0.651831 0.352727 -0.562703
v -0.593579 0.344183 -0.563033
v -0.592567 1.166952 -0.550984
v -0.593348 0.511329 -0.559122
v -0.591182 1.380683 -0.542739
v -0.586076 1.586768 -0.525866
v -0.589233 1.498029 -0.534877
v -0.580863 1.549467 -0.515709
v -0.566388 1.444259 -0.498717
v -0.523040 1.102986 -0.469249
v -0.500509 0.892471 -0.447561
v -0.621184 1.834983 -0.426338
v -0.622705 1.844887 -0.400504
v -0.624739 1.830783 -0.434476
v -0.619229 1.821265 -0.447983
v -0.616694 1.803484 -0.465785
v -0.627203 1.813535 -0.456851
v -0.630334 1.791577 -0.474094
v -0.634028 1.765655 -0.487300
v -0.612835 1.776390 -0.482572
v -0.608781 1.747919 -0.494051
v -0.638922 1.731230 -0.499340
v -0.602403 1.703005 -0.506691
v -0.646026 1.681229 -0.511244
v -0.593941 1.643128 -0.518164
v -0.658844 1.589642 -0.525986
v -0.654272 1.404003 -0.541635
v -0.652602 1.124088 -0.552149
v -0.652064 0.573103 -0.558317
v -0.682620 1.416596 -0.491327
v -0.705154 1.243078 -0.472726
v -0.731771 1.017977 -0.452290
v -0.751466 0.824414 -0.433137
v -0.668050 1.523504 -0.508581
v -0.782599 0.347409 -0.357769
v -0.779012 0.437262 -0.378766
v -0.768059 0.622511 -0.408879
v -0.740978 -0.969134 -0.028135
v -0.741022 -0.968515 -0.028135
v -0.741033 -0.968369 -0.028135
v -0.741034 -0.968350 -0.028135
v -0.741043 -0.968221 -0.028135
v -0.741055 -0.968052 -0.028135
v -0.741056 -0.968045 -0.028135
v -0.727665 -1.154650 -0.028135
v -0.517686 -1.154648 -0.028135
v -0.484214 -0.670676 -0.028135
v -0.468396 -0.367987 -0.028135
v -0.462665 -0.209605 -0.028135
v -0.474105 0.572725 -0.028135
v -0.462888 0.358461 -0.028135
v -0.750472 -0.835053 -0.028135
v -0.781686 -0.239326 -0.028136
v -0.771667 -0.481368 -0.028135
v -0.485064 0.723147 -0.028135
v -0.509840 0.983797 -0.028135
v -0.539688 1.239433 -0.028135
v -0.585768 1.585618 -0.028135
v -0.622665 1.845350 -0.028135
v -0.672960 1.487649 -0.028135
v -0.716574 1.151810 -0.028135
v -0.747418 0.866211 -0.028135
v -0.648133 1.666190 -0.028135
v -0.762957 0.688681 -0.028135
v -0.776091 0.492589 -0.028135
v -0.782648 0.346965 -0.028135
vn -0.7070 -0.2413 -0.6648
vn -0.9978 -0.0656 0.0002
vn -0.7065 -0.2463 -0.6634
vn -0.6370 -0.6043 -0.4787
vn -0.9974 -0.0716 0.0003
vn -0.9972 -0.0743 0.0005
vn -0.9973 -0.0732 0.0002
vn -0.9974 -0.0718 0.0001
vn -0.6634 -0.3806 -0.6442
vn -0.9973 -0.0730 -0.0000
vn -0.9971 -0.0755 0.0007
vn -0.9974 -0.0716 0.0002
vn -0.9974 -0.0716 -0.0000
vn -0.8344 -0.5044 -0.2222
vn -0.0000 -1.0000 -0.0012
vn 0.7040 -0.2064 -0.6795
vn 0.9976 -0.0699 0.0011
vn 0.6707 -0.2855 -0.6846
vn 0.6334 -0.5417 -0.5525
vn 0.8237 -0.4982 -0.2710
vn 0.9978 -0.0657 -0.0000
vn 0.9976 -0.0689 0.0016
vn 0.4826 -0.2630 -0.8354
vn 0.9902 -0.0140 -0.1393
vn 0.9993 -0.0362 0.0002
vn 0.9990 -0.0439 0.0004
vn 0.9823 -0.0241 -0.1859
vn 0.9986 -0.0532 0.0003
vn 1.0000 0.0004 -0.0002
vn 0.9865 0.0290 -0.1613
vn 0.9987 0.0504 0.0014
vn 0.9908 0.0169 -0.1346
vn 0.9980 0.0638 -0.0002
vn 0.9966 0.0827 0.0002
vn 0.9753 0.0362 -0.2177
vn 0.8514 -0.1187 -0.5109
vn 0.5949 -0.1974 -0.7792
vn -0.8169 -0.1320 -0.5615
vn -0.5529 -0.2134 -0.8054
vn 0.4868 -0.2242 -0.8442
vn -0.4571 -0.2298 -0.8592
vn 0.3737 -0.2289 -0.8989
vn -0.3295 -0.2249 -0.9170
vn -0.3809 -0.2308 -0.8954
vn 0.3014 -0.2262 -0.9263
vn -0.3551 -0.2112 -0.9107
vn 0.3827 -0.2088 -0.9000
vn 0.4708 -0.2093 -0.8571
vn -0.4245 -0.2007 -0.8829
vn 0.5053 -0.2958 -0.8106
vn -0.6855 -0.2394 -0.6876
vn -0.7039 -0.2077 -0.6792
vn -0.0010 -0.3171 -0.9484
vn -0.9835 -0.0216 -0.1799
vn -0.9987 -0.0508 0.0009
vn -0.9992 -0.0406 0.0011
vn -0.9647 -0.0282 -0.2620
vn -0.0056 0.0002 -1.0000
vn -0.0040 -0.0000 -1.0000
vn 0.6767 0.0150 -0.7361
vn 0.6433 0.0197 -0.7653
vn 0.6110 0.0277 -0.7911
vn 0.5710 0.0523 -0.8193
vn 0.6955 0.1633 -0.6997
vn 0.9685 0.0693 -0.2390
vn 0.9356 0.0719 -0.3458
vn 0.8825 0.0618 -0.4663
vn 0.9197 0.0485 -0.3897
vn 0.9538 0.0444 -0.2971
vn 0.8877 0.0110 -0.4602
vn -0.5819 0.7209 -0.3765
vn -0.0015 0.9992 -0.0394
vn 0.5599 0.7732 -0.2977
vn 0.6224 0.6520 -0.4330
vn -0.6315 0.5933 -0.4993
vn 0.6417 0.5269 -0.5573
vn -0.6521 0.4680 -0.5964
vn 0.6605 0.4071 -0.6308
vn -0.6695 0.3638 -0.6477
vn -0.6759 0.2918 -0.6767
vn 0.6722 0.3201 -0.6676
vn 0.6802 0.2561 -0.6868
vn -0.3975 0.2342 -0.8872
vn 0.6852 0.2110 -0.6971
vn -0.4955 0.1544 -0.8548
vn -0.5960 0.0373 -0.8021
vn -0.6444 0.0137 -0.7646
vn -0.6746 0.0090 -0.7382
vn -0.8593 0.0106 -0.5114
vn 0.9944 0.1053 0.0012
vn 0.9923 0.1241 0.0007
vn 0.9906 0.1367 0.0004
vn 0.0001 1.0000 -0.0012
vn -0.9364 0.0715 -0.3436
vn -0.9930 0.1183 0.0009
vn -0.9910 0.1335 0.0005
vn -0.9677 0.0727 -0.2416
vn -0.9021 0.0691 -0.4259
vn -0.8958 0.0610 -0.4403
vn -0.9953 0.0971 0.0011
vn -0.9213 0.0500 -0.3857
vn -0.9900 0.1408 -0.0000
vn -0.9905 0.1377 0.0002
vn -0.9970 0.0773 0.0010
vn -0.9561 0.0372 -0.2908
vn -0.9906 -0.0144 -0.1359
vn -0.9946 0.0156 -0.1030
vn -0.9854 0.0213 -0.1688
vn -0.9990 0.0442 0.0010
vn -0.9984 0.0558 0.0011
vn -1.0000 -0.0016 0.0014
vn 0.0022 -1.0000 -0.0030
vn 0.9976 -0.0697 0.0008
vn 1.0000 -0.0000 0.0006
vn -0.9903 0.1386 -0.0000
vn -1.0000 -0.0008 -0.0002
vn -0.0000 -0.0000 1.0000
vn 0.0081 -0.0000 1.0000
vn -0.0017 -0.0000 1.0000
vn 0.0995 -0.0000 0.9950
vn 0.1644 -0.0000 0.9864
vt 0.159909 0.022908
vt 0.278551 0.974335
vt 0.999328 0.000075
vt 0.977745 0.256967
vt 0.516547 0.974088
vt 0.516168 0.974088
vt 0.516168 0.974088
vt 0.516117 0.974088
vt 0.518154 0.974088
vt 0.516547 0.974088
vt 0.943018 0.230626
vt 0.515326 0.974088
vt 0.515326 0.974088
vt 0.515343 0.974088
vt 0.516117 0.974088
vt 0.515784 0.974088
vt 1.000000 0.974088
vt 0.998561 0.295446
vt 0.962979 1.000000
vt 0.000000 1.000000
vt 0.962978 0.000000
vt 0.446974 0.116504
vt 0.999999 0.974088
vt 0.908973 0.218408
vt 0.969092 0.248773
vt 0.996552 0.290367
vt 0.005582 0.974088
vt 0.164955 0.047365
vt -0.000007 -0.000002
vt 0.006820 0.179093
vt 0.000000 0.975330
vt 0.319978 0.975330
vt 0.400732 0.098979
vt 0.860927 0.975164
vt 0.000000 0.030105
vt 0.000000 1.000000
vt 1.000001 0.030105
vt 0.538429 0.082510
vt 0.960916 0.974759
vt 0.990641 0.159958
vt 0.321349 0.974759
vt 0.142438 0.974894
vt 0.166249 0.023657
vt -0.000005 0.393546
vt 0.060700 0.386917
vt 0.003175 0.608748
vt 0.095071 0.622488
vt 0.136934 0.362062
vt 0.165227 0.656894
vt 0.181600 0.324667
vt 0.246108 0.755480
vt 0.209367 0.701089
vt 0.215003 0.276029
vt 0.309575 0.871538
vt 0.286964 0.130434
vt 0.340072 0.050729
vt 0.355172 0.944724
vt 0.393371 0.000336
vt 0.402167 1.000198
vt 0.995467 0.888637
vt 0.949953 0.890777
vt 0.990089 0.112984
vt 0.936903 0.110161
vt 0.903186 0.894347
vt 0.871621 0.103982
vt 0.854062 0.900027
vt 0.628521 0.057085
vt 0.626987 0.945119
vt 0.517825 0.029481
vt 0.492126 0.978661
vt 0.432393 0.008739
vt 0.331472 0.090863
vt 0.549009 0.975119
vt 0.060046 0.975119
vt 0.624069 0.046153
vt 0.997966 0.975119
vt 0.000000 0.000000
vt 1.000000 0.000000
vt 1.000000 1.000000
vt 0.989118 0.532054
vt 0.957467 0.817390
vt 0.946832 0.126770
vt 1.000003 0.150242
vt 0.928449 0.910413
vt 0.896013 0.961482
vt 0.845775 0.098056
vt 0.855893 1.000101
vt 0.802907 0.983839
vt 0.689727 0.938023
vt 0.751804 0.081479
vt 0.418259 0.042017
vt 0.425525 0.789550
vt 0.655834 0.069078
vt 0.291558 0.021506
vt 0.291277 0.697938
vt 0.206134 0.634659
vt 0.204890 0.000238
vt 0.138072 0.581379
vt 0.077703 0.131952
vt 0.073155 0.527120
vt 0.001259 0.216809
vt 0.001361 0.461176
vt 1.000106 0.459304
vt 0.083115 0.531188
vt 0.004569 0.502625
vt 0.064082 0.479798
vt 0.116330 0.453838
vt 0.138159 0.564057
vt 0.161328 0.418993
vt 0.184073 0.606577
vt 0.208217 0.366380
vt 0.223174 0.656837
vt 0.262823 0.723791
vt 0.244901 0.311241
vt 0.289893 0.223990
vt 0.309022 0.820611
vt 0.339305 0.108448
vt 0.377896 0.998223
vt 0.379794 -0.000031
vt 0.435289 0.042310
vt 0.488176 0.937001
vt 0.501359 0.069335
vt 0.608105 0.087464
vt 0.628446 0.912945
vt 0.916013 0.100557
vt 0.885143 0.903334
vt 0.996113 0.900401
vt 1.000625 0.103435
vt 0.981605 0.980133
vt 0.978033 0.186095
vt 0.866318 0.154537
vt 0.783358 0.980133
vt 0.675012 0.112391
vt 0.550986 0.980133
vt 0.364874 0.051094
vt 0.236216 0.980138
vt 0.183944 0.015783
vt 0.235224 -0.000110
vt 0.269156 0.019090
vt 0.000629 0.246760
vt 0.010010 0.196579
vt 0.022110 0.153704
vt 0.038356 0.119073
vt 0.062904 0.086094
vt 0.000000 0.980133
vt 0.389983 0.066234
vt 0.630676 0.980127
vt 0.325280 0.980127
vt 0.292777 0.032617
vt 0.547680 0.103937
vt 0.752282 0.144806
vt 0.890206 0.980127
vt 0.928173 0.182694
vt 0.162926 0.980127
vt 0.000000 0.980127
vt 1.000000 0.980127
vt 0.999721 0.009592
vt 0.140942 0.974761
vt 0.000231 0.000000
vt 0.012032 0.212327
vt 0.001795 0.462342
vt 0.063195 0.501282
vt 0.090604 0.149688
vt 0.171506 0.581553
vt 0.156958 0.086895
vt 0.243125 0.000179
vt 0.960629 0.798954
vt 0.985427 0.560112
vt 0.997636 0.151802
vt 0.999379 0.464580
vt 0.909214 0.116678
vt 0.923279 0.920288
vt 0.860704 1.000281
vt 0.805276 0.090601
vt 0.779417 0.972062
vt 0.714728 0.074289
vt 0.678405 0.925719
vt 0.622701 0.060631
vt 0.546220 0.850529
vt 0.400719 0.752955
vt 0.447242 0.036642
vt 0.335891 0.018875
vt 0.286265 0.669050
vt 0.993382 0.148238
vt 0.995187 0.974666
vt 0.725305 0.095992
vt 0.560598 0.974666
vt 0.185469 0.021400
vt 0.029801 1.000000
vt 0.029801 -0.000002
vt 0.102828 0.029617
vt 0.443201 0.115655
vt 0.887763 0.212159
vt 0.747212 0.020657
vt 0.999614 0.000043
vt 0.515784 0.974088
vt 0.039533 0.154663
vt 0.088663 0.063010
vt 0.129537 0.038584
vt 0.103861 0.052522
vt 0.149291 0.028891
vt 0.072553 0.076032
vt 0.049093 0.102306
vt 0.029263 0.136335
vt 0.013941 0.180518
vt 0.233050 0.000160
vt 0.851706 0.522724
vt 0.863321 0.684433
vt 0.831266 0.666167
vt 0.515343 0.974088
vt 0.834456 0.564613
vt 0.838180 0.548921
vt 0.843938 0.527671
vt 0.848524 0.511726
vt 0.854810 0.533683
vt 0.860191 0.554302
vt 0.864091 0.571830
vt 0.866050 0.582727
vt 0.867679 0.594764
vt 0.868516 0.603702
vt 0.868393 0.639691
vt 0.867122 0.654547
vt 0.864453 0.676257
vt 0.863323 0.684422
vt 0.863323 0.684422
vt 0.829955 0.589844
vt 0.831367 0.580613
vt 0.828524 0.637866
vt 0.828593 0.602997
vt 0.829264 0.647588
vt 0.861649 0.695876
vt 0.835399 0.695876
vt 0.863313 0.684489
vt 0.863320 0.684441
vt 0.863320 0.684442
vt 0.863319 0.684451
s 1
f 4/1/1 89/2/2 1/3/3
f 6/4/4 76/5/5 77/6/6
f 6/4/4 77/7/6 78/8/7
f 6/4/4 75/9/8 76/10/5
f 7/11/9 81/12/10 89/2/2
f 81/13/10 7/11/9 80/14/11
f 6/4/4 78/15/7 79/16/12
f 82/17/13 75/9/8 5/18/14
s 0
f 82/19/15 5/20/15 83/21/15
s 1
f 13/22/16 83/23/17 9/24/18
f 9/24/18 83/23/17 10/25/19
f 10/25/19 83/23/17 11/26/20
s 0
f 84/27/21 12/28/21 2/29/21
s 1
f 13/22/16 84/27/22 83/23/17
f 12/28/23 84/27/22 13/22/16
f 16/30/24 86/31/25 85/32/26
f 15/33/27 85/32/26 84/34/28
s 0
f 86/35/29 16/36/29 88/37/29
s 1
f 18/38/30 88/39/31 17/40/32
f 88/39/31 18/38/30 87/41/33
f 87/41/33 18/38/30 92/42/34
f 19/43/35 92/42/34 18/38/30
f 22/44/36 23/45/37 21/46/38
f 24/47/39 21/46/38 23/45/37
f 24/47/39 23/45/37 25/48/40
f 29/49/41 24/47/39 25/48/40
f 25/48/40 27/50/42 29/49/41
f 27/50/42 32/51/43 28/52/44
f 28/52/44 29/49/41 27/50/42
f 27/50/42 26/53/45 32/51/43
f 30/54/46 26/53/45 31/55/47
f 26/53/45 30/54/46 32/51/43
f 31/55/47 34/56/48 33/57/49
f 33/57/49 30/54/46 31/55/47
f 34/56/48 14/58/50 33/57/49
f 14/58/50 1/59/3 33/57/49
f 5/60/14 6/61/4 11/62/20
f 6/61/4 10/63/19 11/62/20
f 7/64/9 9/65/18 10/63/19
f 9/65/18 7/64/9 8/66/51
f 13/67/16 9/65/18 8/66/51
f 8/66/51 3/68/52 13/67/16
f 12/69/23 13/67/16 3/68/52
f 3/68/52 4/70/1 12/69/23
f 4/70/1 2/71/53 12/69/23
f 2/71/53 4/70/1 1/59/3
f 14/58/50 2/71/53 1/59/3
f 6/61/4 7/64/9 10/63/19
f 36/72/54 91/73/55 90/74/56
f 37/75/57 89/76/2 91/73/55
s 0
f 21/20/58 38/77/58 39/78/58
f 39/78/59 22/79/59 21/20/59
s 1
f 41/80/60 40/81/61 23/82/37
f 23/82/37 22/83/36 41/80/60
f 23/82/37 40/81/61 42/84/62
f 42/84/62 44/85/63 23/82/37
f 25/86/40 44/85/63 43/87/64
f 44/85/63 25/86/40 23/82/37
f 25/86/40 43/87/64 45/88/65
f 45/88/65 46/89/66 27/90/42
f 31/91/47 46/89/66 47/92/67
f 46/89/66 31/91/47 26/93/45
f 47/92/67 34/94/48 31/91/47
f 47/92/67 48/95/68 34/94/48
f 48/95/68 20/96/69 34/94/48
f 14/97/50 34/94/48 20/96/69
f 20/96/69 19/98/35 14/97/50
f 15/99/27 19/98/35 18/100/30
f 15/99/27 14/97/50 19/98/35
f 16/101/24 18/100/30 17/102/32
f 16/101/24 15/99/27 18/100/30
f 46/89/66 26/93/45 27/90/42
f 27/90/42 25/86/40 45/88/65
f 39/103/70 41/80/60 22/83/36
f 51/104/71 50/105/72 49/106/73
f 49/106/73 52/107/74 51/104/71
f 54/108/75 51/104/71 52/107/74
f 53/109/76 55/110/77 54/108/75
f 53/109/76 57/111/78 55/110/77
f 56/112/79 55/110/77 57/111/78
f 59/113/80 56/112/79 58/114/81
f 58/114/81 60/115/82 59/113/80
f 61/116/83 59/113/80 60/115/82
f 60/115/82 62/117/84 61/116/83
f 63/118/85 61/116/83 62/117/84
f 62/117/84 43/119/64 63/118/85
f 43/119/64 44/120/63 63/118/85
f 44/120/63 64/121/86 63/118/85
f 44/120/63 42/122/62 64/121/86
f 42/122/62 40/123/61 64/121/86
f 65/124/87 64/121/86 40/123/61
f 40/123/61 41/125/60 65/124/87
f 66/126/88 65/124/87 41/125/60
f 38/127/89 66/126/88 41/125/60
f 41/125/60 39/128/70 38/127/89
f 57/111/78 58/114/81 56/112/79
f 54/108/75 52/107/74 53/109/76
f 92/129/34 20/130/69 48/131/68
f 92/129/34 48/131/68 93/132/90
f 47/133/67 93/132/90 48/131/68
f 47/133/67 94/134/91 93/132/90
f 46/135/66 95/136/92 94/134/91
f 62/137/84 95/136/92 43/138/64
f 45/139/65 95/136/92 46/135/66
f 43/138/64 95/136/92 45/139/65
f 50/140/72 95/136/92 49/141/73
f 52/142/74 95/136/92 53/143/76
f 53/143/76 95/136/92 57/144/78
f 49/141/73 95/136/92 52/142/74
f 50/140/72 96/145/93 95/136/92
f 67/146/94 98/147/95 97/148/96
f 67/146/94 97/148/96 71/149/97
f 68/150/98 98/147/95 67/146/94
f 69/151/99 99/152/100 98/147/95
f 70/153/101 99/152/100 69/151/99
f 50/140/72 100/154/102 96/155/93
f 100/154/103 71/149/97 97/148/96
f 101/156/104 99/152/100 70/153/101
f 74/157/105 101/158/104 70/159/101
f 35/160/106 72/161/107 73/162/108
f 36/163/54 35/160/106 73/162/108
f 73/162/108 74/164/105 36/163/54
f 37/165/57 36/163/54 74/164/105
f 1/166/3 37/165/57 74/164/105
f 65/167/87 66/168/88 21/169/38
f 66/168/88 38/170/89 21/169/38
f 21/169/38 24/171/39 65/167/87
f 24/171/39 64/172/86 65/167/87
f 24/171/39 63/173/85 64/172/86
f 24/171/39 29/174/41 63/173/85
f 29/174/41 71/175/97 63/173/85
f 29/174/41 28/176/44 71/175/97
f 67/177/94 71/175/97 28/176/44
f 28/176/44 32/178/43 67/177/94
f 68/179/98 67/177/94 32/178/43
f 32/178/43 69/180/99 68/179/98
f 32/178/43 30/181/46 69/180/99
f 69/180/99 30/181/46 33/182/49
f 70/183/101 69/180/99 33/182/49
f 70/183/101 33/182/49 1/166/3
f 74/164/105 70/183/101 1/166/3
f 72/184/107 103/185/109 73/186/108
f 103/185/109 102/187/110 73/186/108
f 102/187/110 101/158/104 74/188/105
s 0
f 90/189/111 103/190/111 35/79/111
s 1
f 4/191/1 3/192/52 89/2/2
f 6/4/4 5/18/14 75/9/8
f 8/193/51 7/11/9 89/2/2
f 3/192/52 8/193/51 89/2/2
s 0
f 83/21/112 5/20/112 11/77/112
f 2/194/113 14/195/113 84/34/113
s 1
f 79/196/12 7/11/9 6/4/4
f 14/195/50 15/33/27 84/34/28
f 15/33/27 16/30/24 85/32/26
s 0
f 88/37/114 16/36/114 17/79/114
s 1
f 19/43/35 20/77/69 92/42/34
f 35/197/106 36/72/54 90/74/56
f 91/73/55 36/72/54 37/75/57
f 89/76/2 37/75/57 1/3/3
f 58/198/81 57/144/78 95/136/92
f 60/199/82 58/198/81 95/136/92
f 95/136/92 62/137/84 60/199/82
f 94/134/91 47/133/67 46/135/66
f 68/150/98 69/151/99 98/147/95
f 59/200/80 61/201/83 100/154/102
f 100/154/102 56/202/79 59/200/80
f 100/154/102 55/203/77 56/202/79
f 54/204/75 55/203/77 100/154/102
f 51/205/71 54/204/75 100/154/102
f 50/140/72 51/205/71 100/154/102
f 63/206/85 71/149/97 100/154/103
s 0
f 61/201/115 63/206/115 100/154/115
s 1
f 74/188/105 73/186/108 102/187/110
s 0
f 72/78/116 35/79/116 103/190/116
f 100/207/117 79/208/117 84/209/117
s 1
f 79/196/12 80/210/11 7/11/9
s 0
f 93/211/117 94/212/117 95/213/117
f 95/213/117 96/214/117 100/207/117
f 100/207/117 97/215/117 98/216/117
f 98/216/117 99/217/117 101/218/117
f 101/218/117 102/219/117 103/220/117
f 103/220/117 90/221/117 91/222/117
f 91/222/117 89/223/117 81/224/117
f 91/222/118 81/224/118 80/225/118
f 101/218/117 103/220/117 91/222/117
f 100/207/117 98/216/117 101/218/117
f 93/211/117 95/213/117 100/207/117
f 87/226/117 92/227/117 93/211/117
f 86/228/117 88/229/117 87/226/117
f 84/209/117 85/230/117 86/228/117
f 82/231/117 83/232/117 84/209/117
f 75/233/117 82/231/117 84/209/117
f 84/209/117 86/228/117 87/226/117
f 87/226/117 93/211/117 100/207/117
f 100/207/117 101/218/117 91/222/117
f 91/222/119 80/225/119 79/208/119
f 79/208/120 78/234/120 77/235/120
f 76/236/117 75/233/117 84/209/117
f 79/208/121 77/235/121 76/236/121
f 100/207/117 91/222/117 79/208/117
f 84/209/117 87/226/117 100/207/117
f 79/208/117 76/236/117 84/209/117
